<svg width="49" height="48" fill="none" xmlns="http://www.w3.org/2000/svg"><g clip-path="url(#clip0_100_1305)"><path d="M41.1 18V1.5H12.6L8.1 6v40.5h33V35.25" stroke="#fff" stroke-width="1.7"/><path d="M16.35 11.9a.85.85 0 100 1.7v-1.7zm16.5 1.7a.85.85 0 000-1.7v1.7zm-16.5 0h16.5v-1.7h-16.5v1.7zm0 2.8a.85.85 0 100 1.7v-1.7zm16.5 1.7a.85.85 0 000-1.7v1.7zm-16.5 0h16.5v-1.7h-16.5v1.7zm0 2.8a.85.85 0 100 1.7v-1.7zm8.25 1.7a.85.85 0 000-1.7v1.7zm-8.25 0h8.25v-1.7h-8.25v1.7zM15.7 4.5a.85.85 0 00-1.7 0h1.7zm-.85 3.75v.85h.85v-.85h-.85zM11.1 7.4a.85.85 0 100 1.7V7.4zM14 4.5v3.75h1.7V4.5H14zm.85 2.9H11.1v1.7h3.75V7.4zm23.928 24.631l.12-.841-.42-.06-.301.3.601.601zm-3.234-3.234l.601.601.286-.286-.041-.402-.846.087zm11.514-.35l-.837-.142.837.143zm-11.507-5.021l-.764-.372.764.372zm-.11.225l-.764-.372.764.372zm11.835 3.519l-.838-.143.838.143zm-17.1 14.665l9.203-9.203-1.202-1.202-9.203 9.203 1.202 1.202zm8.482-8.962l3.814.544.24-1.683-3.814-.544-.24 1.683zm6.843-8.75l-2.937 2.937 1.202 1.202 2.937-2.937-1.202-1.202zm-4.986.888l2.946-2.945-1.202-1.202-2.946 2.945 1.202 1.202zm-6.19.256l.374 3.618 1.69-.175-.373-3.617-1.69.174zm.618 2.93l-9.203 9.202 1.202 1.202 9.203-9.203-1.202-1.202zm5.283-8.663l-1.317.285.36 1.661 1.316-.285-.359-1.661zm-5.44 3.52l-.11.225 1.53.744.11-.225-1.53-.744zm13.11 5.537l.218-1.278-1.676-.286-.218 1.278 1.676.286zM25.74 40.015l1.82 1.82 1.202-1.202-1.82-1.82-1.202 1.202zm16.27-12.827a2.617 2.617 0 01-1.623-1.622l-1.607.553a4.317 4.317 0 002.676 2.677l.554-1.608zm2.502 5.908a6.177 6.177 0 003.384-4.505l-1.675-.286a4.477 4.477 0 01-2.453 3.262l.744 1.529zm-5.603-13.277a5.993 5.993 0 00-4.122 3.235l1.528.744a4.293 4.293 0 012.953-2.318l-.359-1.662zm1.676 1.376a1.822 1.822 0 011.674.493l1.202-1.202a3.522 3.522 0 00-3.235-.952l.36 1.661zM25.74 37.4a1.85 1.85 0 000 2.616l1.202-1.202a.15.15 0 010-.212L25.74 37.4zm10.276-12.306a1.98 1.98 0 01.19-1.07l-1.53-.744a3.68 3.68 0 00-.35 1.988l1.69-.174zm7.445-3.027a1.117 1.117 0 000-1.58l-1.202 1.202a.583.583 0 010-.824l1.202 1.202zm-.897 4.994a.537.537 0 01-.554.128l-.554 1.608a2.237 2.237 0 002.31-.534l-1.202-1.202zm4.139-1.735a.57.57 0 01-.807 0l1.202-1.202a1.13 1.13 0 00-1.597 0l1.202 1.202zm-4.23 8.092c.696.1 1.408-.015 2.039-.321l-.744-1.529a1.83 1.83 0 01-1.056.167l-.24 1.683zm-3.16-9.608a2.237 2.237 0 00-.533 2.31l1.607-.553a.537.537 0 01.128-.555l-1.202-1.202zm6.583 1.516c.446.446.648 1.08.542 1.702l1.676.286a3.645 3.645 0 00-1.016-3.19l-1.202 1.202zM28.974 40.633a.15.15 0 01-.212 0l-1.202 1.202a1.85 1.85 0 002.616 0l-1.202-1.202z" fill="#fff"/></g><defs><clipPath id="clip0_100_1305"><path fill="#fff" transform="translate(.6)" d="M0 0h48v48H0z"/></clipPath></defs></svg>