<svg width="24" height="28" fill="none" xmlns="http://www.w3.org/2000/svg"><path d="M22.5 14v-1.5H18V20h1.5v-3h2.25v-1.5H19.5V14h3zm-8.25 6h-3v-7.5h3a2.252 2.252 0 012.25 2.25v3A2.252 2.252 0 0114.25 20zm-1.5-1.5h1.5a.75.75 0 00.75-.75v-3a.75.75 0 00-.75-.75h-1.5v4.5zm-4.5-6H4.5V20H6v-2.25h2.25a1.502 1.502 0 001.5-1.5V14a1.501 1.501 0 00-1.5-1.5zM6 16.25V14h2.25v2.25H6z" fill="#C1162A"/><path d="M16.5 11V8a.684.684 0 00-.225-.525l-5.25-5.25A.682.682 0 0010.5 2H3a1.505 1.505 0 00-1.5 1.5v18A1.5 1.5 0 003 23h12v-1.5H3v-18h6V8a1.505 1.505 0 001.5 1.5H15V11h1.5zm-6-3V3.8L14.7 8h-4.2z" fill="#C1162A"/></svg>