<svg xmlns="http://www.w3.org/2000/svg" viewBox="0 0 512 512"><path d="M434.582 110.165a10.666 10.666 0 00-7.893-3.499H85.355c-5.891-.026-10.688 4.728-10.714 10.619-.002.351.014.701.047 1.05l32 341.333a10.668 10.668 0 007.701 9.259l149.333 42.667c.964.274 1.963.41 2.965.405a10.995 10.995 0 003.371-.533l128-42.667a10.667 10.667 0 007.253-9.131l32-341.333a10.66 10.66 0 00-2.729-8.17z" fill="#2196f3"/><g fill="#fafafa"><path d="M266.689 426.667a10.675 10.675 0 01-2.923-.427l-74.667-21.333a10.666 10.666 0 01-7.424-7.659l-10.667-42.667c-1.558-5.681 1.785-11.55 7.466-13.108 5.681-1.558 11.55 1.785 13.108 7.466.044.159.083.318.119.479l9.173 36.693 65.813 18.816 64.853-18.539 19.2-173.035H160.02c-5.891 0-10.667-4.776-10.667-10.667s4.776-10.667 10.667-10.667h202.667c5.891-.036 10.695 4.711 10.731 10.602.002.414-.019.827-.065 1.238l-21.333 192a10.668 10.668 0 01-7.68 9.067l-74.667 21.333a10.56 10.56 0 01-2.984.408z"/><path d="M352.022 298.667H170.689c-5.891 0-10.667-4.776-10.667-10.667s4.776-10.667 10.667-10.667h181.333c5.891 0 10.667 4.776 10.667 10.667s-4.776 10.667-10.667 10.667z"/></g><path d="M192.022 64h-42.667c-5.891 0-10.667-4.776-10.667-10.667V10.667C138.689 4.776 143.464 0 149.355 0h42.667c5.891 0 10.667 4.776 10.667 10.667s-4.776 10.667-10.667 10.667h-32v21.333h32c5.891 0 10.667 4.776 10.667 10.667S197.913 64 192.022 64zm85.333 0h-42.667c-5.891 0-10.667-4.776-10.667-10.667s4.776-10.667 10.667-10.667h16.917l-24.469-24.448c-4.171-4.16-4.179-10.914-.019-15.085a10.667 10.667 0 017.571-3.134h42.667c5.891 0 10.667 4.776 10.667 10.667s-4.776 10.667-10.667 10.667h-16.917l24.448 24.448A10.668 10.668 0 01277.355 64zm85.334 0h-42.667c-5.891 0-10.667-4.776-10.667-10.667s4.776-10.667 10.667-10.667h16.917L312.47 18.219c-4.171-4.16-4.179-10.914-.019-15.085A10.667 10.667 0 01320.022 0h42.667c5.891 0 10.667 4.776 10.667 10.667s-4.776 10.667-10.667 10.667h-16.917l24.448 24.448c4.171 4.16 4.179 10.914.019 15.085a10.673 10.673 0 01-7.55 3.133z" fill="#37474f"/></svg>