<svg width="49" height="48" viewBox="0 0 49 48" fill="none" xmlns="http://www.w3.org/2000/svg">
<g clip-path="url(#clip0_100_1305)">
<path d="M41.1 18V1.5H12.6L8.09998 6L8.09998 24V46.5H41.1V35.25" stroke="white" stroke-width="1.7"/>
<path d="M16.35 11.9C15.8805 11.9 15.5 12.2806 15.5 12.75C15.5 13.2194 15.8805 13.6 16.35 13.6V11.9ZM32.85 13.6C33.3194 13.6 33.7 13.2194 33.7 12.75C33.7 12.2806 33.3194 11.9 32.85 11.9V13.6ZM16.35 13.6H32.85V11.9H16.35V13.6Z" fill="white"/>
<path d="M16.35 16.4C15.8805 16.4 15.5 16.7806 15.5 17.25C15.5 17.7194 15.8805 18.1 16.35 18.1V16.4ZM32.85 18.1C33.3194 18.1 33.7 17.7194 33.7 17.25C33.7 16.7806 33.3194 16.4 32.85 16.4V18.1ZM16.35 18.1H32.85V16.4H16.35V18.1Z" fill="white"/>
<path d="M16.35 20.9C15.8805 20.9 15.5 21.2806 15.5 21.75C15.5 22.2194 15.8805 22.6 16.35 22.6V20.9ZM24.6 22.6C25.0694 22.6 25.45 22.2194 25.45 21.75C25.45 21.2806 25.0694 20.9 24.6 20.9V22.6ZM16.35 22.6H24.6V20.9H16.35V22.6Z" fill="white"/>
<path d="M15.7 4.5C15.7 4.03056 15.3194 3.65 14.85 3.65C14.3805 3.65 14 4.03056 14 4.5H15.7ZM14.85 8.25V9.1H15.7V8.25H14.85ZM11.1 7.4C10.6305 7.4 10.25 7.78056 10.25 8.25C10.25 8.71944 10.6305 9.1 11.1 9.1V7.4ZM14 4.5V8.25H15.7V4.5H14ZM14.85 7.4H11.1V9.1H14.85V7.4Z" fill="white"/>
<path d="M38.7781 32.0313L38.8981 31.1898L38.4774 31.1298L38.177 31.4303L38.7781 32.0313ZM35.5441 28.7973L36.1451 29.3984L36.4311 29.1124L36.3896 28.71L35.5441 28.7973ZM47.0584 28.4479L46.2205 28.3052L47.0584 28.4479ZM35.5509 23.4257L34.7866 23.0537L35.5509 23.4257ZM35.4411 23.6513L34.6768 23.2793L35.4411 23.6513ZM47.2761 27.1699L46.4382 27.0272L47.2761 27.1699ZM30.1764 41.8351L39.3791 32.6323L38.177 31.4303L28.9743 40.633L30.1764 41.8351ZM38.658 32.8728L42.4722 33.4168L42.7122 31.7338L38.8981 31.1898L38.658 32.8728ZM45.5009 24.1233L42.564 27.0602L43.7661 28.2623L46.703 25.3254L45.5009 24.1233ZM40.5152 25.0114L43.4607 22.0658L42.2587 20.8637L39.3131 23.8093L40.5152 25.0114ZM34.3252 25.2674L34.6986 28.8846L36.3896 28.71L36.0162 25.0929L34.3252 25.2674ZM34.943 28.1963L25.7403 37.399L26.9424 38.6011L36.1451 29.3984L34.943 28.1963ZM40.226 19.5338L38.9091 19.8185L39.2683 21.4801L40.5852 21.1954L40.226 19.5338ZM34.7866 23.0537L34.6768 23.2793L36.2054 24.0233L36.3152 23.7976L34.7866 23.0537ZM47.8963 28.5906L48.114 27.3126L46.4382 27.0272L46.2205 28.3052L47.8963 28.5906ZM25.7403 40.0153L27.5601 41.8351L28.7622 40.633L26.9424 38.8132L25.7403 40.0153ZM42.0096 27.1882C41.2479 26.9259 40.6494 26.3275 40.3872 25.5658L38.7798 26.1192C39.2124 27.3757 40.1997 28.3629 41.4561 28.7956L42.0096 27.1882ZM44.5118 33.0956C46.2937 32.2284 47.5628 30.5487 47.8963 28.5906L46.2205 28.3052C45.9797 29.7185 45.0609 30.9377 43.7678 31.567L44.5118 33.0956ZM38.9091 19.8185C37.1113 20.2072 35.5915 21.3998 34.7866 23.0537L36.3152 23.7976C36.8918 22.6129 37.9805 21.7585 39.2683 21.4801L38.9091 19.8185ZM40.5852 21.1954C41.1905 21.0645 41.8208 21.25 42.2587 21.6879L43.4607 20.4858C42.6143 19.6394 41.396 19.2808 40.226 19.5338L40.5852 21.1954ZM25.7403 37.399C25.0178 38.1215 25.0178 39.2928 25.7403 40.0153L26.9424 38.8132C26.8838 38.7546 26.8838 38.6597 26.9424 38.6011L25.7403 37.399ZM36.0162 25.0929C35.9783 24.7257 36.0439 24.3552 36.2054 24.0233L34.6768 23.2793C34.3766 23.8963 34.2548 24.5849 34.3252 25.2674L36.0162 25.0929ZM43.4607 22.0658C43.897 21.6295 43.897 20.9221 43.4607 20.4858L42.2587 21.6879C42.0311 21.4603 42.0311 21.0913 42.2587 20.8637L43.4607 22.0658ZM42.564 27.0602C42.4189 27.2053 42.2037 27.255 42.0096 27.1882L41.4561 28.7956C42.2648 29.074 43.1613 28.867 43.7661 28.2623L42.564 27.0602ZM46.703 25.3254C46.4802 25.5482 46.1189 25.5482 45.8961 25.3254L47.0982 24.1233C46.6571 23.6822 45.942 23.6822 45.5009 24.1233L46.703 25.3254ZM42.4722 33.4168C43.1688 33.5161 43.8813 33.4024 44.5118 33.0956L43.7678 31.567C43.4403 31.7264 43.0703 31.7849 42.7122 31.7338L42.4722 33.4168ZM39.3131 23.8093C38.7084 24.414 38.5014 25.3106 38.7798 26.1192L40.3872 25.5658C40.3203 25.3717 40.37 25.1565 40.5152 25.0114L39.3131 23.8093ZM45.8961 25.3254C46.342 25.7712 46.544 26.4056 46.4382 27.0272L48.114 27.3126C48.3124 26.1477 47.9338 24.9589 47.0982 24.1233L45.8961 25.3254ZM28.9743 40.633C28.9157 40.6916 28.8207 40.6916 28.7622 40.633L27.5601 41.8351C28.2825 42.5575 29.4539 42.5575 30.1764 41.8351L28.9743 40.633Z" fill="white"/>
</g>
<defs>
<clipPath id="clip0_100_1305">
<rect width="48" height="48" fill="white" transform="translate(0.599976)"/>
</clipPath>
</defs>
</svg>
