<svg width="49" height="48" viewBox="0 0 49 48" fill="none" xmlns="http://www.w3.org/2000/svg">
<path d="M37.1499 46.125H11.6499" stroke="white" stroke-width="1.7" stroke-linecap="round"/>
<path d="M35.2749 23.625H22.5249M19.5249 23.625H13.1499" stroke="white" stroke-width="1.7" stroke-linecap="round"/>
<path d="M13.1499 2.25V2.75C13.1499 3.30228 12.7022 3.75 12.1499 3.75H11.1499C10.5976 3.75 10.1499 4.19772 10.1499 4.75V6.875C10.1499 7.42728 10.5976 7.875 11.1499 7.875H19.5249M23.2749 7.875H37.6499C38.2022 7.875 38.6499 7.42728 38.6499 6.875V4.75C38.6499 4.19772 38.2022 3.75 37.6499 3.75H36.6499C36.0976 3.75 35.6499 3.30228 35.6499 2.75V2.25" stroke="white" stroke-width="1.7" stroke-linecap="round"/>
<path d="M28.1499 30V41.25L24.3999 45L20.6499 41.25V30" stroke="white" stroke-width="1.7" stroke-linecap="round"/>
<path d="M28.1499 30.75L20.6499 34.5" stroke="white" stroke-width="1.7" stroke-linecap="round"/>
<path d="M28.1499 36.75L20.6499 40.5" stroke="white" stroke-width="1.7" stroke-linecap="round"/>
<path d="M32.6499 8.25V12.875C32.6499 13.4273 33.0976 13.875 33.6499 13.875H34.6499C35.2022 13.875 35.6499 14.3227 35.6499 14.875V23.6795C35.6499 23.888 35.5848 24.0912 35.4636 24.2608L32.199 28.8312C32.0113 29.094 31.7082 29.25 31.3853 29.25H18.461C18.1829 29.25 17.9174 29.1342 17.7282 28.9305L13.4171 24.2878C13.2454 24.1028 13.1499 23.8597 13.1499 23.6073V14.875C13.1499 14.3227 13.5976 13.875 14.1499 13.875H15.5249C16.0772 13.875 16.5249 13.4273 16.5249 12.875V8.25" stroke="white" stroke-width="1.7" stroke-linecap="round"/>
</svg>
