<svg width="48" height="48" viewBox="0 0 48 48" fill="none" xmlns="http://www.w3.org/2000/svg">
<path d="M31.875 2.25H42.375V6.75H18V2.25" stroke="white" stroke-width="1.7" stroke-linecap="round"/>
<path d="M38.35 7.5C38.35 7.03056 37.9694 6.65 37.5 6.65C37.0306 6.65 36.65 7.03056 36.65 7.5H38.35ZM37.5 11.625L38.1752 12.1413L38.35 11.9128V11.625H37.5ZM22.875 11.625H22.025V11.9464L22.2376 12.1874L22.875 11.625ZM23.725 7.5C23.725 7.03056 23.3444 6.65 22.875 6.65C22.4056 6.65 22.025 7.03056 22.025 7.5H23.725ZM28.2014 17.6616L27.5641 18.224L28.2014 17.6616ZM36.65 7.5V11.625H38.35V7.5H36.65ZM36.8248 11.1087L32.25 17.0911L33.6004 18.1238L38.1752 12.1413L36.8248 11.1087ZM32.1308 17.15H28.9513V18.85H32.1308V17.15ZM28.8388 17.0992L23.5124 11.0626L22.2376 12.1874L27.5641 18.224L28.8388 17.0992ZM23.725 11.625V7.5H22.025V11.625H23.725ZM28.9513 17.15C28.9082 17.15 28.8673 17.1315 28.8388 17.0992L27.5641 18.224C27.9153 18.622 28.4205 18.85 28.9513 18.85V17.15ZM32.25 17.0911C32.2216 17.1282 32.1775 17.15 32.1308 17.15V18.85C32.707 18.85 33.2504 18.5815 33.6004 18.1238L32.25 17.0911Z" fill="white"/>
<path d="M27.375 10.875H22.875" stroke="white" stroke-width="1.7" stroke-linecap="round"/>
<path d="M1.5 33H8.48387C9.03616 33 9.48387 33.4477 9.48387 34V40.25C9.48387 40.8023 9.93159 41.25 10.4839 41.25H37.879C38.4313 41.25 38.879 40.8023 38.879 40.25V34C38.879 33.4477 39.3267 33 39.879 33H46.5" stroke="white" stroke-width="1.7" stroke-linecap="round"/>
<path d="M1.5 46.5H46.5" stroke="white" stroke-width="1.7" stroke-linecap="round"/>
<path d="M34.875 30.375L41.25 24.75M33 29.25C33 28.65 35.75 23 37.125 20.25M30.375 31.125V21.75M28.125 28.875C26.625 25.125 25.875 22.5 24.75 19.5M25.875 30.375L20.25 24.75M24.75 33.375L16.5 29.25M24.75 35.25H15.75" stroke="white" stroke-width="1.7" stroke-linecap="round"/>
<circle cx="30.75" cy="34.5" r="1.125" fill="white"/>
<circle cx="11.25" cy="25.5" r="1.125" fill="white"/>
<circle cx="43.5" cy="20.25" r="1.125" fill="white"/>
</svg>
