<svg width="49" height="48" viewBox="0 0 49 48" fill="none" xmlns="http://www.w3.org/2000/svg">
<g clip-path="url(#clip0_100_1455)">
<path d="M24.7999 1.9816L26.5277 3.79321L27.0187 4.30804L27.6119 3.91537L29.6995 2.53365L30.9808 4.6843L31.3449 5.29548L32.0107 5.04467L34.3534 4.16211L35.124 6.54395L35.343 7.22084L36.0478 7.12446L38.5282 6.78532L38.7495 9.27893L38.8124 9.98758L39.521 10.0505L42.0146 10.2718L41.6755 12.7521L41.5791 13.457L42.256 13.676L44.6378 14.4466L43.7553 16.7892L43.5044 17.455L44.1156 17.8191L46.2663 19.1004L44.8846 21.188L44.4919 21.7812L45.0067 22.2723L46.8183 24L45.0067 25.7277L44.4919 26.2188L44.8846 26.812L46.2663 28.8996L44.1156 30.1809L43.5044 30.545L43.7553 31.2108L44.6378 33.5534L42.256 34.324L41.5791 34.543L41.6755 35.2479L42.0146 37.7282L39.521 37.9495L38.8124 38.0124L38.7495 38.7211L38.5282 41.2147L36.0478 40.8755L35.343 40.7792L35.124 41.4561L34.3534 43.8379L32.0107 42.9553L31.3449 42.7045L30.9808 43.3157L29.6995 45.4664L27.6119 44.0846L27.0187 43.692L26.5277 44.2068L24.7999 46.0184L23.0722 44.2068L22.5812 43.692L21.9879 44.0846L19.9004 45.4664L18.6191 43.3157L18.2549 42.7045L17.5892 42.9553L15.2465 43.8379L14.4759 41.4561L14.2569 40.7792L13.552 40.8755L11.0717 41.2147L10.8504 38.7211L10.7875 38.0124L10.0789 37.9495L7.58525 37.7282L7.92439 35.2479L8.02077 34.543L7.34388 34.324L4.96203 33.5534L5.8446 31.2108L6.09541 30.545L5.48422 30.1809L3.33357 28.8996L4.7153 26.812L5.10797 26.2188L4.59314 25.7277L2.78153 24L4.59314 22.2723L5.10797 21.7812L4.7153 21.188L3.33357 19.1004L5.48422 17.8191L6.09541 17.455L5.8446 16.7892L4.96203 14.4466L7.34388 13.676L8.02077 13.457L7.92439 12.7521L7.58525 10.2718L10.0789 10.0505L10.7875 9.98758L10.8504 9.27893L11.0717 6.78532L13.552 7.12446L14.2569 7.22084L14.4759 6.54395L15.2465 4.16211L17.5892 5.04467L18.2549 5.29548L18.6191 4.6843L19.9004 2.53365L21.9879 3.91537L22.5812 4.30804L23.0722 3.79321L24.7999 1.9816Z" stroke="white" stroke-width="1.7"/>
<circle cx="24.7999" cy="24" r="16.4" stroke="white" stroke-width="1.7"/>
</g>
<defs>
<clipPath id="clip0_100_1455">
<rect width="48" height="48" fill="white" transform="translate(0.799927)"/>
</clipPath>
</defs>
</svg>
