<svg width="49" height="48" viewBox="0 0 49 48" fill="none" xmlns="http://www.w3.org/2000/svg">
<g clip-path="url(#clip0_100_1380)">
<path fill-rule="evenodd" clip-rule="evenodd" d="M16.5198 4.34035C18.5382 6.88897 22.5941 6.08219 23.4836 2.95518C23.5347 2.77556 23.6175 2.68591 23.6933 2.63251C23.7814 2.57036 23.9061 2.52739 24.05 2.52739C24.1939 2.52739 24.3186 2.57036 24.4067 2.63251C24.4825 2.68591 24.5653 2.77556 24.6164 2.95518C25.5059 6.08219 29.5618 6.88897 31.5802 4.34035C31.6961 4.19396 31.807 4.14285 31.8974 4.1225C32.0026 4.09882 32.1343 4.10683 32.2672 4.1619C32.4001 4.21696 32.4989 4.30436 32.5565 4.39552C32.6061 4.47385 32.6483 4.58839 32.6268 4.77388C32.2519 8.00324 35.6903 10.3007 38.5304 8.71853C38.6935 8.62765 38.8155 8.62286 38.9068 8.63866C39.0131 8.65705 39.1317 8.71482 39.2334 8.81657C39.3352 8.91832 39.3929 9.03685 39.4113 9.14314C39.4271 9.23446 39.4223 9.35645 39.3314 9.51959C37.7492 12.3597 40.0467 15.7981 43.2761 15.4232C43.4616 15.4016 43.5761 15.4439 43.6545 15.4934C43.7456 15.5511 43.833 15.6498 43.8881 15.7828C43.9432 15.9157 43.9512 16.0473 43.9275 16.1526C43.9071 16.243 43.856 16.3539 43.7096 16.4698C41.161 18.4882 41.9678 22.5441 45.0948 23.4336C45.2744 23.4846 45.3641 23.5675 45.4175 23.6433C45.4796 23.7314 45.5226 23.8561 45.5226 24C45.5226 24.1439 45.4796 24.2685 45.4175 24.3567C45.3641 24.4325 45.2744 24.5153 45.0948 24.5664C41.9678 25.4559 41.161 29.5118 43.7096 31.5302C43.856 31.6461 43.9071 31.757 43.9275 31.8474C43.9512 31.9526 43.9432 32.0843 43.8881 32.2172C43.833 32.3501 43.7456 32.4489 43.6545 32.5065C43.5761 32.5561 43.4616 32.5983 43.2761 32.5768C40.0467 32.2019 37.7492 35.6403 39.3314 38.4804C39.4223 38.6435 39.4271 38.7655 39.4113 38.8568C39.3929 38.9631 39.3352 39.0817 39.2334 39.1834C39.1317 39.2851 39.0131 39.3429 38.9068 39.3613C38.8155 39.3771 38.6935 39.3723 38.5304 39.2814C35.6903 37.6992 32.2519 39.9967 32.6268 43.2261C32.6483 43.4116 32.6061 43.5261 32.5565 43.6044C32.4989 43.6956 32.4001 43.783 32.2672 43.8381C32.1343 43.8931 32.0026 43.9012 31.8974 43.8775C31.807 43.8571 31.6961 43.806 31.5802 43.6596C31.5702 43.647 31.5601 43.6344 31.55 43.6219V45.5416C32.9511 45.8392 34.5136 44.7367 34.3155 43.03C34.1003 41.177 36.0734 39.8586 37.703 40.7665C39.7165 41.8882 41.9383 39.6665 40.8165 37.653C39.9086 36.0234 41.227 34.0503 43.08 34.2655C45.3695 34.5313 46.5719 31.6284 44.7651 30.1975C43.3026 29.0393 43.7656 26.7119 45.5599 26.2016C47.7768 25.571 47.7768 22.429 45.5599 21.7984C43.7656 21.288 43.3026 18.9607 44.7651 17.8025C46.5719 16.3715 45.3695 13.4687 43.08 13.7345C41.227 13.9496 39.9086 11.9766 40.8165 10.3469C41.9383 8.33345 39.7165 6.11173 37.703 7.23344C36.0734 8.14134 34.1003 6.823 34.3155 4.96993C34.5813 2.68046 31.6784 1.47806 30.2475 3.28492C29.0893 4.74736 26.7619 4.28442 26.2516 2.49008C25.621 0.273162 22.479 0.273163 21.8484 2.49008C21.338 4.28442 19.0107 4.74736 17.8525 3.28492C16.4216 1.47806 13.5187 2.68046 13.7845 4.96993C13.9997 6.823 12.0266 8.14134 10.3969 7.23344C8.38347 6.11173 6.16174 8.33345 7.28345 10.3469C8.19135 11.9766 6.87301 13.9496 5.01995 13.7345C2.73047 13.4687 1.52808 16.3715 3.33493 17.8025C4.79737 18.9607 4.33443 21.288 2.5401 21.7984C0.323175 22.429 0.323175 25.571 2.5401 26.2016C4.33443 26.7119 4.79737 29.0393 3.33493 30.1975C1.52808 31.6284 2.73047 34.5313 5.01995 34.2655C6.87301 34.0503 8.19135 36.0234 7.28345 37.653C6.16174 39.6665 8.38347 41.8882 10.3969 40.7665C12.0266 39.8586 13.9997 41.177 13.7845 43.03C13.5864 44.7367 15.1489 45.8392 16.55 45.5416V43.6219C16.5399 43.6344 16.5298 43.647 16.5198 43.6596C16.4039 43.806 16.293 43.8571 16.2026 43.8775C16.0973 43.9012 15.9657 43.8931 15.8328 43.8381C15.6999 43.783 15.6011 43.6956 15.5435 43.6044C15.4939 43.5261 15.4516 43.4116 15.4732 43.2261C15.8481 39.9967 12.4097 37.6992 9.5696 39.2814C9.40646 39.3723 9.28447 39.3771 9.19315 39.3613C9.08686 39.3429 8.96833 39.2851 8.86658 39.1834C8.76484 39.0817 8.70707 38.9631 8.68867 38.8568C8.67287 38.7655 8.67766 38.6435 8.76855 38.4804C10.3508 35.6403 8.05326 32.2019 4.8239 32.5768C4.6384 32.5983 4.52386 32.5561 4.44554 32.5065C4.35438 32.4489 4.26697 32.3501 4.21191 32.2172C4.15684 32.0843 4.14883 31.9526 4.17251 31.8474C4.19286 31.757 4.24397 31.6461 4.39037 31.5302C6.93898 29.5118 6.13221 25.4559 3.00519 24.5664C2.82557 24.5153 2.73592 24.4325 2.68252 24.3567C2.62037 24.2685 2.57741 24.1439 2.57741 24C2.57741 23.8561 2.62037 23.7314 2.68252 23.6433C2.73592 23.5675 2.82557 23.4846 3.00519 23.4336C6.13221 22.5441 6.93898 18.4882 4.39037 16.4698C4.24397 16.3539 4.19286 16.243 4.17251 16.1526C4.14883 16.0473 4.15684 15.9157 4.21191 15.7828C4.26697 15.6498 4.35438 15.5511 4.44554 15.4934C4.52386 15.4439 4.6384 15.4016 4.8239 15.4232C8.05326 15.7981 10.3508 12.3597 8.76855 9.51959C8.67766 9.35645 8.67287 9.23446 8.68867 9.14314C8.70707 9.03685 8.76484 8.91832 8.86658 8.81657C8.96833 8.71482 9.08686 8.65705 9.19315 8.63866C9.28447 8.62286 9.40647 8.62765 9.5696 8.71853C12.4097 10.3007 15.8481 8.00324 15.4732 4.77388C15.4516 4.58839 15.4939 4.47385 15.5435 4.39552C15.6011 4.30436 15.6999 4.21696 15.8328 4.1619C15.9657 4.10683 16.0973 4.09882 16.2026 4.1225C16.293 4.14285 16.4039 4.19396 16.5198 4.34035Z" fill="white"/>
<path d="M26.7898 28.5833L26.2796 27.9034L25.9398 28.1585V28.5833H26.7898ZM20.9429 28.5833H21.7929V28.1789L21.479 27.9238L20.9429 28.5833ZM16.7815 18.0133L16.067 17.5529L16.7815 18.0133ZM30.7295 25.6271L30.2194 24.9473L30.7295 25.6271ZM27.6398 46.5V28.5833H25.9398V46.5H27.6398ZM27.2999 29.2632L31.2397 26.307L30.2194 24.9473L26.2796 27.9034L27.2999 29.2632ZM25.9551 15.3573V20.6671H27.6551V15.3573H25.9551ZM21.7776 20.6671V15.3416H20.0776V20.6671H21.7776ZM16.7993 26.3105L20.4067 29.2429L21.479 27.9238L17.8717 24.9914L16.7993 26.3105ZM20.0929 28.5833V46.5H21.7929V28.5833H20.0929ZM17.0001 16.1051L16.067 17.5529L17.4959 18.4738L18.429 17.026L17.0001 16.1051ZM15.2897 23.9987L15.3944 24.3019L17.0013 23.7471L16.8966 23.4438L15.2897 23.9987ZM31.7292 17.3671L30.7707 16.015L29.3838 16.9982L30.3423 18.3503L31.7292 17.3671ZM16.067 17.5529C14.8325 19.4684 14.546 21.8446 15.2897 23.9987L16.8966 23.4438C16.3232 21.783 16.5441 19.9507 17.4959 18.4738L16.067 17.5529ZM27.1624 15.85C28.0452 15.85 28.8732 16.278 29.3838 16.9982L30.7707 16.015C29.9414 14.8452 28.5964 14.15 27.1624 14.15V15.85ZM18.429 17.026C18.9014 16.2929 19.7138 15.85 20.5859 15.85V14.15C19.1361 14.15 17.7855 14.8864 17.0001 16.1051L18.429 17.026ZM17.8717 24.9914C17.4712 24.6659 17.1698 24.2349 17.0013 23.7471L15.3944 24.3019C15.6663 25.0893 16.1529 25.7851 16.7993 26.3105L17.8717 24.9914ZM21.7776 15.3416C21.7776 14.6835 21.2441 14.15 20.5859 14.15V15.85C20.3052 15.85 20.0776 15.6224 20.0776 15.3416H21.7776ZM20.0776 20.6671C20.0776 21.67 20.6493 22.585 21.5507 23.0246L22.2959 21.4967C21.9788 21.342 21.7776 21.02 21.7776 20.6671H20.0776ZM25.9551 20.6671C25.9551 21.02 25.7539 21.342 25.4367 21.4967L26.182 23.0246C27.0833 22.585 27.6551 21.67 27.6551 20.6671H25.9551ZM25.4367 21.4967C24.4456 21.9801 23.2871 21.9801 22.2959 21.4967L21.5507 23.0246C23.0122 23.7374 24.7205 23.7374 26.182 23.0246L25.4367 21.4967ZM27.6551 15.3573C27.6551 15.6294 27.4345 15.85 27.1624 15.85V14.15C26.4956 14.15 25.9551 14.6905 25.9551 15.3573H27.6551ZM32.7114 24.2851C33.5136 21.9617 33.1533 19.376 31.7292 17.3671L30.3423 18.3503C31.4468 19.9083 31.7292 21.9208 31.1045 23.7302L32.7114 24.2851ZM31.2397 26.307C31.9211 25.7957 32.4342 25.088 32.7114 24.2851L31.1045 23.7302C30.9372 24.2147 30.6273 24.6412 30.2194 24.9473L31.2397 26.307Z" fill="white"/>
<path d="M11.5369 26.1014C11.4548 25.6392 11.0136 25.331 10.5514 25.4131C10.0892 25.4952 9.78101 25.9364 9.86309 26.3986L11.5369 26.1014ZM17.0147 37.4801C17.4179 37.7205 17.9396 37.5885 18.1801 37.1853C18.4205 36.7821 18.2885 36.2604 17.8853 36.0199L17.0147 37.4801ZM9.86309 26.3986C10.3112 28.9221 10.922 31.0107 12.0295 32.819C13.1446 34.6396 14.7248 36.1146 17.0147 37.4801L17.8853 36.0199C15.773 34.7604 14.4185 33.4646 13.4792 31.931C12.5324 30.3852 11.9693 28.5362 11.5369 26.1014L9.86309 26.3986Z" fill="white"/>
<path d="M36.8631 22.6486C36.9452 23.1108 37.3864 23.419 37.8486 23.3369C38.3108 23.2548 38.619 22.8136 38.5369 22.3514L36.8631 22.6486ZM31.3853 11.2699C30.9821 11.0295 30.4604 11.1615 30.2199 11.5647C29.9795 11.9679 30.1115 12.4896 30.5147 12.7301L31.3853 11.2699ZM38.5369 22.3514C38.0888 19.8279 37.478 17.7393 36.3705 15.931C35.2554 14.1104 33.6752 12.6354 31.3853 11.2699L30.5147 12.7301C32.627 13.9896 33.9815 15.2854 34.9208 16.819C35.8676 18.3648 36.4307 20.2138 36.8631 22.6486L38.5369 22.3514Z" fill="white"/>
</g>
<defs>
<clipPath id="clip0_100_1380">
<rect width="48" height="48" fill="white" transform="translate(0.199997)"/>
</clipPath>
</defs>
</svg>
