<svg width="24" height="28" viewBox="0 0 24 28" fill="none" xmlns="http://www.w3.org/2000/svg">
<path d="M22.5 14V12.5H18V20H19.5V17H21.75V15.5H19.5V14H22.5ZM14.25 20H11.25V12.5H14.25C14.8466 12.5006 15.4185 12.7378 15.8403 13.1597C16.2622 13.5815 16.4994 14.1534 16.5 14.75V17.75C16.4994 18.3466 16.2622 18.9185 15.8403 19.3403C15.4185 19.7622 14.8466 19.9994 14.25 20ZM12.75 18.5H14.25C14.4489 18.4998 14.6395 18.4207 14.7801 18.2801C14.9207 18.1395 14.9998 17.9489 15 17.75V14.75C14.9998 14.5511 14.9207 14.3605 14.7801 14.2199C14.6395 14.0793 14.4489 14.0002 14.25 14H12.75V18.5ZM8.25 12.5H4.5V20H6V17.75H8.25C8.64764 17.7494 9.02883 17.5912 9.31 17.31C9.59118 17.0288 9.7494 16.6476 9.75 16.25V14C9.7496 13.6023 9.59144 13.221 9.31022 12.9398C9.029 12.6586 8.6477 12.5004 8.25 12.5ZM6 16.25V14H8.25L8.25075 16.25H6Z" fill="#C1162A"/>
<path d="M16.5 11V8.00001C16.5026 7.90144 16.4839 7.80347 16.4451 7.71284C16.4062 7.62221 16.3482 7.54107 16.275 7.47501L11.025 2.22501C10.959 2.15177 10.8778 2.09372 10.7872 2.05488C10.6966 2.01603 10.5986 1.99731 10.5 2.00001H3C2.60254 2.0012 2.2217 2.15961 1.94065 2.44066C1.6596 2.72171 1.50119 3.10255 1.5 3.50001V21.5C1.5 21.8978 1.65804 22.2794 1.93934 22.5607C2.22064 22.842 2.60218 23 3 23H15V21.5H3V3.50001H9V8.00001C9.00119 8.39747 9.1596 8.77831 9.44065 9.05936C9.7217 9.34041 10.1025 9.49882 10.5 9.50001H15V11H16.5ZM10.5 8.00001V3.80001L14.7 8.00001H10.5Z" fill="#C1162A"/>
</svg>
