<svg width="21" height="20" viewBox="0 0 21 20" fill="none" xmlns="http://www.w3.org/2000/svg">
<path d="M18.1667 8.33337C18.1667 14.1667 10.6667 19.1667 10.6667 19.1667C10.6667 19.1667 3.16669 14.1667 3.16669 8.33337C3.16669 6.34425 3.95686 4.4366 5.36339 3.03007C6.76991 1.62355 8.67756 0.833374 10.6667 0.833374C12.6558 0.833374 14.5635 1.62355 15.97 3.03007C17.3765 4.4366 18.1667 6.34425 18.1667 8.33337Z" stroke="#C1162A" stroke-width="1.5" stroke-linecap="round" stroke-linejoin="round"/>
<path d="M10.6667 10.8334C12.0474 10.8334 13.1667 9.71409 13.1667 8.33337C13.1667 6.95266 12.0474 5.83337 10.6667 5.83337C9.28598 5.83337 8.16669 6.95266 8.16669 8.33337C8.16669 9.71409 9.28598 10.8334 10.6667 10.8334Z" stroke="#C1162A" stroke-width="1.5" stroke-linecap="round" stroke-linejoin="round"/>
</svg>
