<svg width="20" height="20" viewBox="0 0 20 20" fill="none" xmlns="http://www.w3.org/2000/svg">
<path d="M9.1665 3.33333H3.33317C2.89114 3.33333 2.46722 3.50892 2.15466 3.82148C1.8421 4.13404 1.6665 4.55797 1.6665 4.99999V16.6667C1.6665 17.1087 1.8421 17.5326 2.15466 17.8452C2.46722 18.1577 2.89114 18.3333 3.33317 18.3333H14.9998C15.4419 18.3333 15.8658 18.1577 16.1783 17.8452C16.4909 17.5326 16.6665 17.1087 16.6665 16.6667V10.8333" stroke="white" stroke-width="1.5" stroke-linecap="round" stroke-linejoin="round"/>
<path d="M15.4165 2.08333C15.748 1.75181 16.1977 1.56557 16.6665 1.56557C17.1353 1.56557 17.585 1.75181 17.9165 2.08333C18.248 2.41485 18.4343 2.86449 18.4343 3.33333C18.4343 3.80217 18.248 4.25181 17.9165 4.58333L9.99984 12.5L6.6665 13.3333L7.49984 10L15.4165 2.08333Z" stroke="white" stroke-width="1.5" stroke-linecap="round" stroke-linejoin="round"/>
</svg>
