<svg width="203" height="48" viewBox="0 0 203 48" fill="none" xmlns="http://www.w3.org/2000/svg">
<g clip-path="url(#clip0_15_422)">
<path d="M2.89685 5.42316C2.38036 5.42316 1.93123 5.24352 1.54948 4.88422C1.16772 4.50247 0.976845 4.05334 0.976845 3.53685V3.4358C0.976845 2.91931 1.16772 2.47018 1.54948 2.08843C1.93123 1.70668 2.38036 1.5158 2.89685 1.5158H17.2463C17.7628 1.5158 18.212 1.70668 18.5937 2.08843C18.9754 2.47018 19.1663 2.91931 19.1663 3.4358V3.53685C19.1663 4.05334 18.9754 4.50247 18.5937 4.88422C18.212 5.24352 17.7628 5.42316 17.2463 5.42316H12.7326C12.553 5.42316 12.4632 5.52422 12.4632 5.72632V24.1853C12.4632 24.7017 12.2723 25.1509 11.8905 25.5326C11.5088 25.9144 11.0596 26.1053 10.5432 26.1053H9.6C9.08354 26.1053 8.63436 25.9144 8.25264 25.5326C7.87088 25.1509 7.68 24.7017 7.68 24.1853V5.72632C7.68 5.52422 7.59018 5.42316 7.41053 5.42316H2.89685ZM29.8926 17.6842C26.6814 17.6842 25.0758 18.6723 25.0758 20.6484C25.0758 21.367 25.2779 21.9509 25.6821 22.4C26.1088 22.8491 26.6478 23.0737 27.299 23.0737C28.579 23.0737 29.612 22.6807 30.3979 21.8947C31.1838 21.0863 31.5768 19.9859 31.5768 18.5937V17.9874C31.5768 17.7853 31.4758 17.6842 31.2737 17.6842H29.8926ZM26.0863 26.4421C24.5593 26.4421 23.2905 25.948 22.28 24.96C21.292 23.9495 20.7979 22.647 20.7979 21.0526C20.7979 19.099 21.539 17.5832 23.0211 16.5053C24.5256 15.4274 26.8162 14.8884 29.8926 14.8884H31.2737C31.4758 14.8884 31.5768 14.7874 31.5768 14.5853V14.3158C31.5768 13.2828 31.3299 12.5642 30.8358 12.16C30.3417 11.7333 29.4659 11.52 28.2084 11.52C26.9059 11.52 25.3116 11.7558 23.4253 12.2274C23.0211 12.3396 22.6505 12.2723 22.3137 12.0253C21.9768 11.7558 21.8084 11.4078 21.8084 10.9811C21.8084 10.4646 21.9656 10.0042 22.28 9.60001C22.5944 9.17331 22.9986 8.91512 23.4926 8.82527C25.1993 8.44354 26.8049 8.25264 28.3095 8.25264C31.1838 8.25264 33.1937 8.7691 34.339 9.80211C35.4842 10.8351 36.0569 12.6428 36.0569 15.2253V24.1853C36.0569 24.7017 35.8659 25.1509 35.4842 25.5326C35.1249 25.9144 34.687 26.1053 34.1705 26.1053H33.8C33.2611 26.1053 32.8007 25.9256 32.419 25.5663C32.0372 25.1846 31.8351 24.7242 31.8126 24.1853V23.7137C31.8126 23.6912 31.8014 23.68 31.779 23.68C31.7341 23.68 31.7116 23.6912 31.7116 23.7137C30.3417 25.5326 28.4667 26.4421 26.0863 26.4421ZM40.7574 26.1053C40.2408 26.1053 39.7918 25.9144 39.41 25.5326C39.0282 25.1509 38.8374 24.7017 38.8374 24.1853V10.5095C38.8374 9.99302 39.0282 9.54384 39.41 9.16211C39.7918 8.78039 40.2408 8.58948 40.7574 8.58948H41.3974C41.9139 8.58948 42.363 8.78039 42.7448 9.16211C43.1265 9.54384 43.3174 9.99302 43.3174 10.5095V19.9747L43.3511 20.0084L43.3848 19.9747L48.8079 10.24C49.4366 9.13963 50.3911 8.58948 51.6711 8.58948H52.4121C52.9286 8.58948 53.3777 8.78039 53.7595 9.16211C54.1412 9.54384 54.3321 9.99302 54.3321 10.5095V24.1853C54.3321 24.7017 54.1412 25.1509 53.7595 25.5326C53.3777 25.9144 52.9286 26.1053 52.4121 26.1053H51.7721C51.2556 26.1053 50.8065 25.9144 50.4248 25.5326C50.043 25.1509 49.8521 24.7017 49.8521 24.1853V14.72L49.8185 14.6863L49.7848 14.72L44.3616 24.4547C43.7328 25.5551 42.7784 26.1053 41.4984 26.1053H40.7574ZM51.6374 0.741058H51.7048C52.1987 0.741058 52.603 0.90948 52.9174 1.24632C53.2318 1.58316 53.3103 1.97615 53.1532 2.42527C52.749 3.68281 51.9518 4.69334 50.7616 5.45685C49.5939 6.1979 48.2016 6.56843 46.5848 6.56843C44.9679 6.56843 43.5644 6.1979 42.3742 5.45685C41.2065 4.69334 40.4206 3.68281 40.0163 2.42527C39.8591 1.97615 39.9377 1.58316 40.2521 1.24632C40.5665 0.90948 40.9707 0.741058 41.4648 0.741058H41.5321C42.2732 0.741058 42.9918 1.24632 43.6879 2.25685C44.3166 3.17755 45.2823 3.6379 46.5848 3.6379C47.8872 3.6379 48.8528 3.17755 49.4816 2.25685C50.1777 1.24632 50.8963 0.741058 51.6374 0.741058ZM63.4826 11.7221C61.5289 11.7221 60.5521 13.5972 60.5521 17.3474C60.5521 21.0975 61.5289 22.9726 63.4826 22.9726C64.291 22.9726 64.9984 22.6021 65.6047 21.8611C65.7171 21.7488 65.7731 21.5691 65.7731 21.3221V13.3726C65.7731 13.1256 65.7171 12.9459 65.6047 12.8337C64.9984 12.0926 64.291 11.7221 63.4826 11.7221ZM70.1521 13.3726V21.3221C70.1521 21.5691 70.2083 21.7488 70.3205 21.8611C70.9268 22.6021 71.6342 22.9726 72.4426 22.9726C74.3963 22.9726 75.3731 21.0975 75.3731 17.3474C75.3731 13.5972 74.3963 11.7221 72.4426 11.7221C71.6342 11.7221 70.9268 12.0926 70.3205 12.8337C70.2083 12.9684 70.1521 13.148 70.1521 13.3726ZM62.4721 26.4421C60.5409 26.4421 59.0251 25.6786 57.9247 24.1516C56.8244 22.6246 56.2742 20.3565 56.2742 17.3474C56.2742 14.3383 56.8244 12.0702 57.9247 10.5432C59.0251 9.01617 60.5409 8.25264 62.4721 8.25264C63.6847 8.25264 64.7514 8.64565 65.6721 9.43158C65.6946 9.45407 65.7171 9.46527 65.7395 9.46527C65.7619 9.46527 65.7731 9.45407 65.7731 9.43158V2.76211C65.7731 2.24562 65.964 1.79649 66.3458 1.41474C66.7276 1.03298 67.1767 0.84211 67.6931 0.84211H68.2321C68.7486 0.84211 69.1977 1.03298 69.5795 1.41474C69.9613 1.79649 70.1521 2.24562 70.1521 2.76211V9.43158C70.1521 9.45407 70.1634 9.46527 70.1858 9.46527C70.2083 9.46527 70.2307 9.45407 70.2531 9.43158C71.1739 8.64565 72.2405 8.25264 73.4531 8.25264C75.3844 8.25264 76.9002 9.01617 78.0005 10.5432C79.1009 12.0702 79.651 14.3383 79.651 17.3474C79.651 20.3565 79.1009 22.6246 78.0005 24.1516C76.9002 25.6786 75.3844 26.4421 73.4531 26.4421C72.2405 26.4421 71.1739 26.0491 70.2531 25.2632C70.2307 25.2407 70.2083 25.2295 70.1858 25.2295C70.1634 25.2295 70.1521 25.2407 70.1521 25.2632V31.5958C70.1521 32.1123 69.9613 32.5614 69.5795 32.9432C69.1977 33.3249 68.7486 33.5158 68.2321 33.5158H67.6931C67.1767 33.5158 66.7276 33.3249 66.3458 32.9432C65.964 32.5614 65.7731 32.1123 65.7731 31.5958V25.2632C65.7731 25.2407 65.7619 25.2295 65.7395 25.2295C65.7171 25.2295 65.6946 25.2407 65.6721 25.2632C64.7514 26.0491 63.6847 26.4421 62.4721 26.4421ZM86.8413 25.8358L80.7782 10.3747C80.5985 9.94805 80.6322 9.54384 80.8792 9.16211C81.1487 8.78039 81.5192 8.58948 81.9908 8.58948H83.0687C83.6301 8.58948 84.1353 8.7579 84.5844 9.09474C85.0333 9.43159 85.3482 9.86948 85.5276 10.4084L89.0307 21.4568C89.0307 21.4793 89.0417 21.4905 89.0644 21.4905C89.0872 21.4905 89.0981 21.4793 89.0981 21.4568L92.6013 10.4084C92.7587 9.86948 93.0619 9.43159 93.5107 9.09474C93.9596 8.7579 94.4766 8.58948 95.0602 8.58948H95.936C96.3848 8.58948 96.7444 8.78039 97.0139 9.16211C97.2834 9.54384 97.3398 9.94805 97.1823 10.3747L91.2539 26.2063C90.2661 28.8337 89.1318 30.7088 87.8518 31.8316C86.5945 32.9544 84.8539 33.6056 82.6308 33.7853C82.1592 33.8078 81.7438 33.6505 81.3845 33.3137C81.0477 32.9993 80.8792 32.6063 80.8792 32.1347C80.8792 31.6632 81.0477 31.2478 81.3845 30.8884C81.7214 30.5516 82.1368 30.3607 82.6308 30.3158C83.7311 30.1811 84.5844 29.8217 85.1907 29.2379C85.7971 28.6765 86.347 27.7221 86.8413 26.3747C86.864 26.2849 86.875 26.1951 86.875 26.1053C86.875 26.0154 86.864 25.9256 86.8413 25.8358ZM100.507 26.1053C99.9899 26.1053 99.5411 25.9144 99.1596 25.5326C98.8 25.1509 98.6206 24.7017 98.6206 24.1853V10.5095C98.6206 9.99302 98.8 9.54384 99.1596 9.16211C99.5411 8.78039 99.9899 8.58948 100.507 8.58948H101.248C101.764 8.58948 102.213 8.78039 102.595 9.16211C102.977 9.54384 103.168 9.99302 103.168 10.5095V15.0232C103.168 15.2253 103.269 15.3263 103.471 15.3263H109.13C109.332 15.3263 109.433 15.2253 109.433 15.0232V10.5095C109.433 9.99302 109.624 9.54384 110.006 9.16211C110.387 8.78039 110.836 8.58948 111.353 8.58948H112.094C112.611 8.58948 113.048 8.78039 113.408 9.16211C113.789 9.54384 113.981 9.99302 113.981 10.5095V24.1853C113.981 24.7017 113.789 25.1509 113.408 25.5326C113.048 25.9144 112.611 26.1053 112.094 26.1053H111.353C110.836 26.1053 110.387 25.9144 110.006 25.5326C109.624 25.1509 109.433 24.7017 109.433 24.1853V18.7958C109.433 18.5937 109.332 18.4926 109.13 18.4926H103.471C103.269 18.4926 103.168 18.5937 103.168 18.7958V24.1853C103.168 24.7017 102.977 25.1509 102.595 25.5326C102.213 25.9144 101.764 26.1053 101.248 26.1053H100.507ZM118.924 18.1221C118.429 18.1221 118.003 17.9537 117.644 17.6168C117.284 17.2575 117.105 16.8309 117.105 16.3368C117.105 15.8428 117.284 15.4274 117.644 15.0905C118.003 14.7312 118.429 14.5516 118.924 14.5516H126.536C127.03 14.5516 127.457 14.7312 127.816 15.0905C128.175 15.4274 128.355 15.8428 128.355 16.3368C128.355 16.8309 128.175 17.2575 127.816 17.6168C127.457 17.9537 127.03 18.1221 126.536 18.1221H118.924ZM132.445 25.6674C131.906 25.5102 131.468 25.1958 131.131 24.7242C130.817 24.2526 130.659 23.7249 130.659 23.1411V22.8042C130.659 22.3551 130.84 22.007 131.198 21.76C131.581 21.513 131.985 21.468 132.411 21.6253C134.365 22.299 136.139 22.6358 137.733 22.6358C139.283 22.6358 140.461 22.299 141.27 21.6253C142.101 20.9516 142.516 20.0084 142.516 18.7958C142.516 17.5832 142.023 16.6962 141.034 16.1347C140.046 15.5509 138.328 15.2478 135.88 15.2253C135.364 15.2253 134.926 15.0456 134.567 14.6863C134.208 14.3046 134.028 13.8554 134.028 13.339C134.028 12.8225 134.208 12.3846 134.567 12.0253C134.949 11.6435 135.398 11.4526 135.914 11.4526C140.069 11.3853 142.146 10.1838 142.146 7.84843C142.146 5.93965 140.709 4.98527 137.834 4.98527C136.173 4.98527 134.466 5.31089 132.714 5.96211C132.288 6.11931 131.884 6.07439 131.501 5.82737C131.12 5.58035 130.929 5.23228 130.929 4.78316V4.48001C130.929 3.89615 131.097 3.36843 131.434 2.89685C131.771 2.42527 132.209 2.11089 132.748 1.95369C134.567 1.4372 136.487 1.17895 138.508 1.17895C141.091 1.17895 143.101 1.70668 144.537 2.76211C145.997 3.81755 146.727 5.23228 146.727 7.00632C146.727 8.60068 146.323 9.88068 145.514 10.8463C144.728 11.812 143.459 12.5417 141.708 13.0358C141.686 13.0358 141.674 13.047 141.674 13.0695C141.674 13.1144 141.686 13.1368 141.708 13.1368C143.482 13.4063 144.829 14.0463 145.75 15.0568C146.693 16.0449 147.165 17.3699 147.165 19.0316C147.165 21.367 146.356 23.1859 144.739 24.4884C143.123 25.7909 140.866 26.4421 137.969 26.4421C136.083 26.4421 134.242 26.1838 132.445 25.6674ZM157.215 17.6842C154.003 17.6842 152.398 18.6723 152.398 20.6484C152.398 21.367 152.6 21.9509 153.005 22.4C153.431 22.8491 153.97 23.0737 154.621 23.0737C155.901 23.0737 156.934 22.6807 157.72 21.8947C158.506 21.0863 158.899 19.9859 158.899 18.5937V17.9874C158.899 17.7853 158.798 17.6842 158.596 17.6842H157.215ZM153.409 26.4421C151.881 26.4421 150.613 25.948 149.603 24.96C148.614 23.9495 148.12 22.647 148.12 21.0526C148.12 19.099 148.861 17.5832 150.344 16.5053C151.848 15.4274 154.138 14.8884 157.215 14.8884H158.596C158.798 14.8884 158.899 14.7874 158.899 14.5853V14.3158C158.899 13.2828 158.652 12.5642 158.158 12.16C157.664 11.7333 156.788 11.52 155.531 11.52C154.228 11.52 152.634 11.7558 150.748 12.2274C150.344 12.3396 149.973 12.2723 149.636 12.0253C149.299 11.7558 149.131 11.4078 149.131 10.9811C149.131 10.4646 149.288 10.0042 149.603 9.60001C149.917 9.17331 150.321 8.91512 150.815 8.82527C152.521 8.44354 154.127 8.25264 155.632 8.25264C158.506 8.25264 160.516 8.7691 161.661 9.80211C162.807 10.8351 163.379 12.6428 163.379 15.2253V24.1853C163.379 24.7017 163.188 25.1509 162.807 25.5326C162.447 25.9144 162.009 26.1053 161.493 26.1053H161.123C160.584 26.1053 160.123 25.9256 159.741 25.5663C159.359 25.1846 159.157 24.7242 159.135 24.1853V23.7137C159.135 23.6912 159.123 23.68 159.101 23.68C159.056 23.68 159.034 23.6912 159.034 23.7137C157.664 25.5326 155.789 26.4421 153.409 26.4421ZM170.606 15.0568V19.6379C170.606 20.5362 170.988 21.3333 171.752 22.0295C172.537 22.7256 173.447 23.0737 174.48 23.0737C175.67 23.0737 176.613 22.5909 177.309 21.6253C178.005 20.6596 178.354 19.2337 178.354 17.3474C178.354 13.5299 177.062 11.6211 174.48 11.6211C173.447 11.6211 172.537 11.9691 171.752 12.6653C170.988 13.3614 170.606 14.1586 170.606 15.0568ZM168.08 33.5158C167.563 33.5158 167.114 33.3249 166.733 32.9432C166.35 32.5614 166.16 32.1123 166.16 31.5958V10.5095C166.16 9.99302 166.35 9.54384 166.733 9.16211C167.114 8.78039 167.563 8.58948 168.08 8.58948H168.484C169.023 8.58948 169.483 8.78039 169.865 9.16211C170.247 9.52144 170.449 9.97053 170.472 10.5095V10.7453C170.472 10.7678 170.483 10.779 170.505 10.779C170.527 10.779 170.55 10.7678 170.573 10.7453C171.381 9.847 172.189 9.207 172.998 8.82527C173.806 8.44354 174.749 8.25264 175.827 8.25264C177.938 8.25264 179.622 9.04986 180.88 10.6442C182.137 12.2162 182.766 14.4505 182.766 17.3474C182.766 20.1544 182.104 22.3775 180.779 24.0168C179.476 25.6337 177.826 26.4421 175.827 26.4421C173.874 26.4421 172.178 25.7347 170.741 24.32C170.718 24.2975 170.696 24.2863 170.674 24.2863C170.651 24.2863 170.64 24.2975 170.64 24.32V31.5958C170.64 32.1123 170.449 32.5614 170.067 32.9432C169.708 33.3249 169.27 33.5158 168.754 33.5158H168.08ZM191.981 11.5537C189.242 11.5537 187.872 12.3509 187.872 13.9453C187.872 15.5846 189.298 16.4042 192.15 16.4042H193.464C193.643 16.4042 193.733 16.3032 193.733 16.1011V11.9242C193.733 11.7221 193.643 11.6211 193.464 11.6211C192.79 11.5762 192.296 11.5537 191.981 11.5537ZM187.805 18.0547C186.569 17.7179 185.559 17.1565 184.773 16.3705C183.987 15.5621 183.594 14.6078 183.594 13.5074C183.594 10.0716 186.323 8.35369 191.779 8.35369C193.171 8.35369 194.676 8.40983 196.293 8.52211C196.832 8.5446 197.281 8.7691 197.64 9.1958C198.022 9.60001 198.213 10.0716 198.213 10.6105V24.1853C198.213 24.7017 198.022 25.1509 197.64 25.5326C197.259 25.9144 196.809 26.1053 196.293 26.1053H195.653C195.137 26.1053 194.687 25.9144 194.306 25.5326C193.924 25.1509 193.733 24.7017 193.733 24.1853V19.7726C193.733 19.593 193.643 19.5032 193.464 19.5032H192.352C191.476 19.5032 190.87 19.6154 190.533 19.84C190.196 20.0421 189.826 20.5811 189.421 21.4568L188.175 24.3537C187.928 24.8702 187.558 25.2968 187.064 25.6337C186.592 25.948 186.076 26.1053 185.514 26.1053H184.908C184.459 26.1053 184.11 25.9144 183.864 25.5326C183.639 25.1509 183.617 24.7579 183.796 24.3537L185.245 21.2211C185.986 19.6267 186.851 18.6049 187.838 18.1558C187.861 18.1558 187.872 18.1446 187.872 18.1221C187.872 18.0772 187.849 18.0547 187.805 18.0547Z" fill="white"/>
<path d="M0.842104 44.6316C0.635508 44.6316 0.455858 44.5552 0.303157 44.4025C0.159437 44.2499 0.0875778 44.0702 0.0875778 43.8636V38.3933C0.0875778 38.1867 0.159437 38.007 0.303157 37.8543C0.455858 37.7016 0.635508 37.6253 0.842104 37.6253H1.13853C1.34512 37.6253 1.52477 37.7016 1.67747 37.8543C1.83017 38.007 1.90653 38.1867 1.90653 38.3933V40.1987C1.90653 40.2796 1.94695 40.32 2.02779 40.32H4.29137C4.37221 40.32 4.41263 40.2796 4.41263 40.1987V38.3933C4.41263 38.1867 4.48898 38.007 4.64168 37.8543C4.79438 37.7016 4.97404 37.6253 5.18063 37.6253H5.47705C5.68365 37.6253 5.8588 37.7016 6.00253 37.8543C6.15522 38.007 6.23158 38.1867 6.23158 38.3933V43.8636C6.23158 44.0702 6.15522 44.2499 6.00253 44.4025C5.8588 44.5552 5.68365 44.6316 5.47705 44.6316H5.18063C4.97404 44.6316 4.79438 44.5552 4.64168 44.4025C4.48898 44.2499 4.41263 44.0702 4.41263 43.8636V41.7078C4.41263 41.627 4.37221 41.5865 4.29137 41.5865H2.02779C1.94695 41.5865 1.90653 41.627 1.90653 41.7078V43.8636C1.90653 44.0702 1.83017 44.2499 1.67747 44.4025C1.52477 44.5552 1.34512 44.6316 1.13853 44.6316H0.842104ZM10.7149 41.2632C9.43048 41.2632 8.78821 41.6584 8.78821 42.4488C8.78821 42.7363 8.86905 42.9699 9.03074 43.1495C9.20143 43.3291 9.41701 43.419 9.67747 43.419C10.1895 43.419 10.6027 43.2617 10.9171 42.9474C11.2314 42.624 11.3886 42.1838 11.3886 41.627V41.3844C11.3886 41.3036 11.3482 41.2632 11.2674 41.2632H10.7149ZM9.19242 44.7663C8.58164 44.7663 8.0741 44.5687 7.66989 44.1735C7.27467 43.7693 7.07705 43.2483 7.07705 42.6105C7.07705 41.8291 7.37347 41.2227 7.96632 40.7916C8.56817 40.3604 9.48438 40.1448 10.7149 40.1448H11.2674C11.3482 40.1448 11.3886 40.1044 11.3886 40.0236V39.9158C11.3886 39.5026 11.2899 39.2152 11.0922 39.0535C10.8946 38.8828 10.5443 38.7975 10.0413 38.7975C9.52025 38.7975 8.88253 38.8918 8.128 39.0804C7.96632 39.1253 7.8181 39.0984 7.68337 38.9996C7.54863 38.8918 7.48126 38.7526 7.48126 38.5819C7.48126 38.3753 7.54414 38.1912 7.66989 38.0295C7.79565 37.8588 7.95733 37.7555 8.15495 37.7196C8.83764 37.5669 9.47983 37.4905 10.0817 37.4905C11.2314 37.4905 12.0354 37.6971 12.4935 38.1103C12.9516 38.5235 13.1806 39.2466 13.1806 40.2796V43.8636C13.1806 44.0702 13.1043 44.2499 12.9516 44.4025C12.8078 44.5552 12.6327 44.6316 12.4261 44.6316H12.2779C12.0623 44.6316 11.8781 44.5598 11.7255 44.416C11.5728 44.2633 11.492 44.0792 11.4829 43.8636V43.675C11.4829 43.6659 11.4785 43.6615 11.4695 43.6615C11.4515 43.6615 11.4425 43.6659 11.4425 43.675C10.8946 44.4025 10.1446 44.7663 9.19242 44.7663ZM16.3812 44.5238L13.956 38.3394C13.8841 38.1687 13.8976 38.007 13.9964 37.8543C14.1042 37.7016 14.2524 37.6253 14.441 37.6253H14.8722C15.0968 37.6253 15.2989 37.6926 15.4785 37.8274C15.6582 37.9621 15.7839 38.1373 15.8557 38.3528L17.257 42.7722C17.257 42.7812 17.2616 42.7857 17.2705 42.7857C17.2795 42.7857 17.284 42.7812 17.284 42.7722L18.6852 38.3528C18.7481 38.1373 18.8694 37.9621 19.049 37.8274C19.2287 37.6926 19.4353 37.6253 19.6689 37.6253H20.0191C20.1988 37.6253 20.3425 37.7016 20.4503 37.8543C20.5581 38.007 20.5805 38.1687 20.5176 38.3394L18.1463 44.672C17.7511 45.723 17.2974 46.473 16.7854 46.9221C16.2824 47.3712 15.5863 47.6318 14.697 47.7036C14.5084 47.7126 14.3422 47.6497 14.1985 47.515C14.0637 47.3892 13.9964 47.232 13.9964 47.0434C13.9964 46.8547 14.0637 46.6886 14.1985 46.5448C14.3332 46.4101 14.4995 46.3337 14.697 46.3158C15.1372 46.2619 15.4785 46.1182 15.721 45.8846C15.9635 45.66 16.1837 45.2783 16.3812 44.7394C16.3902 44.7034 16.3947 44.6675 16.3947 44.6316C16.3947 44.5956 16.3902 44.5598 16.3812 44.5238ZM23.6259 42.7722C22.6378 42.7722 21.9462 42.5971 21.551 42.2467C21.1557 41.8874 20.9581 41.2676 20.9581 40.3874V38.3933C20.9581 38.1867 21.03 38.007 21.1737 37.8543C21.3264 37.7016 21.506 37.6253 21.7127 37.6253H21.9148C22.1213 37.6253 22.301 37.7016 22.4537 37.8543C22.6064 38.007 22.6828 38.1867 22.6828 38.3933V40.0371C22.6828 40.603 22.7636 40.9712 22.9253 41.1419C23.0959 41.3126 23.4328 41.3979 23.9358 41.3979C24.4298 41.3979 24.87 41.3126 25.2563 41.1419C25.3191 41.115 25.3506 41.0566 25.3506 40.9667V38.3933C25.3506 38.1867 25.4269 38.007 25.5796 37.8543C25.7323 37.7016 25.9119 37.6253 26.1186 37.6253H26.3476C26.5542 37.6253 26.7293 37.7016 26.8731 37.8543C27.0258 38.007 27.1021 38.1867 27.1021 38.3933V43.8636C27.1021 44.0702 27.0258 44.2499 26.8731 44.4025C26.7293 44.5552 26.5542 44.6316 26.3476 44.6316H26.1186C25.9119 44.6316 25.7323 44.5552 25.5796 44.4025C25.4269 44.2499 25.3506 44.0702 25.3506 43.8636V42.5432C25.3506 42.5162 25.3371 42.4937 25.3101 42.4758C25.2921 42.4579 25.2697 42.4533 25.2428 42.4623C24.7218 42.6689 24.1828 42.7722 23.6259 42.7722ZM29.0421 44.6316C28.8355 44.6316 28.6558 44.5552 28.5032 44.4025C28.3594 44.2499 28.2876 44.0702 28.2876 43.8636V38.3933C28.2876 38.1867 28.3594 38.007 28.5032 37.8543C28.6558 37.7016 28.8355 37.6253 29.0421 37.6253H29.3385C29.5451 37.6253 29.7248 37.7016 29.8775 37.8543C30.0301 38.007 30.1065 38.1867 30.1065 38.3933V40.1987C30.1065 40.2796 30.1469 40.32 30.2278 40.32H32.4914C32.5722 40.32 32.6126 40.2796 32.6126 40.1987V38.3933C32.6126 38.1867 32.689 38.007 32.8417 37.8543C32.9944 37.7016 33.1741 37.6253 33.3806 37.6253H33.6771C33.8836 37.6253 34.0588 37.7016 34.2025 37.8543C34.3552 38.007 34.4316 38.1867 34.4316 38.3933V43.8636C34.4316 44.0702 34.3552 44.2499 34.2025 44.4025C34.0588 44.5552 33.8836 44.6316 33.6771 44.6316H33.3806C33.1741 44.6316 32.9944 44.5552 32.8417 44.4025C32.689 44.2499 32.6126 44.0702 32.6126 43.8636V41.7078C32.6126 41.627 32.5722 41.5865 32.4914 41.5865H30.2278C30.1469 41.5865 30.1065 41.627 30.1065 41.7078V43.8636C30.1065 44.0702 30.0301 44.2499 29.8775 44.4025C29.7248 44.5552 29.5451 44.6316 29.3385 44.6316H29.0421ZM39.7368 39.3634C39.4764 38.9861 39.0811 38.7975 38.5512 38.7975C38.0212 38.7975 37.6215 38.9861 37.352 39.3634C37.0915 39.7316 36.9613 40.32 36.9613 41.1284C36.9613 41.9368 37.0915 42.5297 37.352 42.907C37.6215 43.2752 38.0212 43.4594 38.5512 43.4594C39.0811 43.4594 39.4764 43.2752 39.7368 42.907C40.0063 42.5297 40.1411 41.9368 40.1411 41.1284C40.1411 40.32 40.0063 39.7316 39.7368 39.3634ZM41.0573 43.8232C40.4644 44.452 39.6291 44.7663 38.5512 44.7663C37.4733 44.7663 36.6334 44.452 36.0316 43.8232C35.4387 43.1854 35.1423 42.2872 35.1423 41.1284C35.1423 39.9697 35.4387 39.076 36.0316 38.4472C36.6334 37.8094 37.4733 37.4905 38.5512 37.4905C39.6291 37.4905 40.4644 37.8094 41.0573 38.4472C41.6591 39.076 41.96 39.9697 41.96 41.1284C41.96 42.2872 41.6591 43.1854 41.0573 43.8232ZM43.472 41.4383C43.2744 41.4383 43.1037 41.371 42.96 41.2362C42.8163 41.0925 42.7444 40.9219 42.7444 40.7242C42.7444 40.5266 42.8163 40.3604 42.96 40.2257C43.1037 40.0819 43.2744 40.0101 43.472 40.0101H46.5171C46.7147 40.0101 46.8853 40.0819 47.0291 40.2257C47.1728 40.3604 47.2446 40.5266 47.2446 40.7242C47.2446 40.9219 47.1728 41.0925 47.0291 41.2362C46.8853 41.371 46.7147 41.4383 46.5171 41.4383H43.472ZM49.2714 44.6316C49.0648 44.6316 48.8851 44.5552 48.7325 44.4025C48.5797 44.2499 48.5034 44.0702 48.5034 43.8636V38.3933C48.5034 38.1867 48.5797 38.007 48.7325 37.8543C48.8851 37.7016 49.0648 37.6253 49.2714 37.6253H53.8255C54.0321 37.6253 54.2117 37.7016 54.3645 37.8543C54.5171 38.007 54.5935 38.1867 54.5935 38.3933V43.8636C54.5935 44.0702 54.5171 44.2499 54.3645 44.4025C54.2117 44.5552 54.0321 44.6316 53.8255 44.6316H53.583C53.3763 44.6316 53.1967 44.5552 53.044 44.4025C52.8913 44.2499 52.815 44.0702 52.815 43.8636V39.0939C52.815 39.0131 52.779 38.9726 52.7072 38.9726H50.3897C50.3178 38.9726 50.2819 39.0131 50.2819 39.0939V43.8636C50.2819 44.0702 50.2056 44.2499 50.0529 44.4025C49.9001 44.5552 49.7205 44.6316 49.5139 44.6316H49.2714ZM57.5555 40.2122V42.0446C57.5555 42.404 57.7083 42.7228 58.0136 43.0013C58.3281 43.2798 58.6919 43.419 59.105 43.419C59.5811 43.419 59.9584 43.2259 60.2368 42.8396C60.5153 42.4533 60.6545 41.883 60.6545 41.1284C60.6545 39.6014 60.138 38.8379 59.105 38.8379C58.6919 38.8379 58.3281 38.9771 58.0136 39.2556C57.7083 39.5341 57.5555 39.8529 57.5555 40.2122ZM56.545 47.5958C56.3385 47.5958 56.1588 47.5194 56.0061 47.3667C55.8534 47.2141 55.777 47.0344 55.777 46.8278V38.3933C55.777 38.1867 55.8534 38.007 56.0061 37.8543C56.1588 37.7016 56.3385 37.6253 56.545 37.6253H56.7067C56.9223 37.6253 57.1064 37.7016 57.2591 37.8543C57.4119 37.9981 57.4927 38.1777 57.5017 38.3933V38.4876C57.5017 38.4966 57.5062 38.5011 57.5151 38.5011C57.5241 38.5011 57.5331 38.4966 57.5421 38.4876C57.8654 38.1283 58.1888 37.8723 58.5122 37.7196C58.8355 37.5669 59.2128 37.4905 59.644 37.4905C60.4883 37.4905 61.162 37.8094 61.665 38.4472C62.1681 39.076 62.4195 39.9697 62.4195 41.1284C62.4195 42.2512 62.1546 43.1405 61.6246 43.7962C61.1037 44.443 60.4435 44.7663 59.644 44.7663C58.8625 44.7663 58.1843 44.4834 57.6094 43.9175C57.6005 43.9085 57.5915 43.904 57.5825 43.904C57.5736 43.904 57.569 43.9085 57.569 43.9175V46.8278C57.569 47.0344 57.4927 47.2141 57.34 47.3667C57.1963 47.5194 57.0211 47.5958 56.8145 47.5958H56.545ZM67.3184 39.3634C67.0579 38.9861 66.6627 38.7975 66.1327 38.7975C65.6028 38.7975 65.203 38.9861 64.9336 39.3634C64.6731 39.7316 64.5428 40.32 64.5428 41.1284C64.5428 41.9368 64.6731 42.5297 64.9336 42.907C65.203 43.2752 65.6028 43.4594 66.1327 43.4594C66.6627 43.4594 67.0579 43.2752 67.3184 42.907C67.5879 42.5297 67.7226 41.9368 67.7226 41.1284C67.7226 40.32 67.5879 39.7316 67.3184 39.3634ZM68.6388 43.8232C68.046 44.452 67.2106 44.7663 66.1327 44.7663C65.0548 44.7663 64.215 44.452 63.6131 43.8232C63.0203 43.1854 62.7239 42.2872 62.7239 41.1284C62.7239 39.9697 63.0203 39.076 63.6131 38.4472C64.215 37.8094 65.0548 37.4905 66.1327 37.4905C67.2106 37.4905 68.046 37.8094 68.6388 38.4472C69.2407 39.076 69.5416 39.9697 69.5416 41.1284C69.5416 42.2872 69.2407 43.1854 68.6388 43.8232ZM71.0266 44.6316C70.8201 44.6316 70.6404 44.5552 70.4877 44.4025C70.335 44.2499 70.2586 44.0702 70.2586 43.8636V38.3933C70.2586 38.1867 70.335 38.007 70.4877 37.8543C70.6404 37.7016 70.8201 37.6253 71.0266 37.6253H71.2826C71.4893 37.6253 71.6689 37.7016 71.8216 37.8543C71.9743 38.007 72.0506 38.1867 72.0506 38.3933V42.1794L72.0641 42.1928L72.0776 42.1794L74.2468 38.2855C74.4984 37.8453 74.8801 37.6253 75.3921 37.6253H75.6885C75.8952 37.6253 76.0748 37.7016 76.2275 37.8543C76.3802 38.007 76.4565 38.1867 76.4565 38.3933V43.8636C76.4565 44.0702 76.3802 44.2499 76.2275 44.4025C76.0748 44.5552 75.8952 44.6316 75.6885 44.6316H75.4325C75.2259 44.6316 75.0463 44.5552 74.8936 44.4025C74.7409 44.2499 74.6645 44.0702 74.6645 43.8636V40.0775L74.651 40.064L74.6376 40.0775L72.4683 43.9714C72.2169 44.4115 71.835 44.6316 71.323 44.6316H71.0266ZM77.8801 44.5507C77.6915 44.5059 77.5343 44.4025 77.4085 44.2408C77.2918 44.0792 77.2334 43.895 77.2334 43.6884C77.2334 43.5267 77.3007 43.3965 77.4355 43.2977C77.5702 43.1989 77.7184 43.172 77.8801 43.2168C78.464 43.3695 79.0568 43.4459 79.6586 43.4459C80.7635 43.4459 81.3159 43.136 81.3159 42.5162C81.3159 42.2108 81.1407 41.9817 80.7904 41.8291C80.4491 41.6764 79.8428 41.5955 78.9715 41.5865C78.8098 41.5865 78.6706 41.5282 78.5538 41.4114C78.4371 41.2856 78.3786 41.1419 78.3786 40.9802C78.3786 40.8185 78.4371 40.6793 78.5538 40.5625C78.6706 40.4457 78.8098 40.3874 78.9715 40.3874C80.4716 40.3604 81.2216 40.0775 81.2216 39.5385C81.2216 39.0265 80.6691 38.7705 79.5643 38.7705C79.0973 38.7705 78.5718 38.8514 77.9879 39.0131C77.8262 39.0579 77.678 39.0355 77.5433 38.9457C77.4085 38.8558 77.3411 38.7256 77.3411 38.555C77.3411 38.3484 77.3996 38.1687 77.5163 38.016C77.6331 37.8543 77.7903 37.751 77.9879 37.7061C78.5628 37.5624 79.1466 37.4905 79.7395 37.4905C80.7545 37.4905 81.5495 37.6657 82.1243 38.016C82.7082 38.3573 83.0001 38.775 83.0001 39.2691C83.0001 39.6463 82.8564 39.9832 82.5689 40.2796C82.2905 40.576 81.8863 40.7916 81.3563 40.9263C81.3384 40.9263 81.3294 40.9353 81.3294 40.9533C81.3294 40.9623 81.3384 40.9667 81.3563 40.9667C81.8773 41.0476 82.295 41.2542 82.6094 41.5865C82.9327 41.9189 83.0944 42.3051 83.0944 42.7453C83.0944 43.356 82.8025 43.8456 82.2186 44.2139C81.6438 44.5822 80.8174 44.7663 79.7395 44.7663C79.1107 44.7663 78.491 44.6945 77.8801 44.5507ZM85.6505 41.6135V43.4055C85.6505 43.4773 85.691 43.5223 85.7718 43.5402C85.8796 43.5582 86.0497 43.5672 86.2838 43.5672C87.3524 43.5672 87.8872 43.2078 87.8872 42.4893C87.8872 41.8335 87.339 41.5057 86.2434 41.5057H85.7718C85.691 41.5057 85.6505 41.5416 85.6505 41.6135ZM85.6505 38.8514V40.2931C85.6505 40.3649 85.691 40.4008 85.7718 40.4008H86.203C86.6425 40.4008 86.9886 40.32 87.2404 40.1583C87.5006 39.9966 87.6312 39.7766 87.6312 39.4981C87.6312 38.9592 87.168 38.6897 86.2434 38.6897C86.1356 38.6897 85.9739 38.6987 85.7583 38.7166C85.6859 38.7346 85.6505 38.7795 85.6505 38.8514ZM84.6265 44.6585C84.411 44.6406 84.2307 44.5507 84.0874 44.3891C83.9437 44.2184 83.8718 44.0253 83.8718 43.8097V38.4472C83.8718 38.2226 83.9437 38.0295 84.0874 37.8678C84.2307 37.7061 84.4152 37.6163 84.64 37.5983C85.1604 37.5534 85.6455 37.531 86.0952 37.531C88.2324 37.531 89.3019 38.1148 89.3019 39.2825C89.3019 39.6867 89.1537 40.0326 88.8573 40.32C88.5693 40.5985 88.1743 40.7826 87.6716 40.8724L87.6581 40.8859H87.6716C88.2729 40.9667 88.7444 41.1644 89.0863 41.4787C89.4274 41.7842 89.5983 42.1614 89.5983 42.6105C89.5983 44.0208 88.4665 44.7259 86.203 44.7259C85.7179 44.7259 85.1924 44.7034 84.6265 44.6585ZM94.5053 39.3634C94.2451 38.9861 93.8493 38.7975 93.3196 38.7975C92.7899 38.7975 92.3899 38.9861 92.1204 39.3634C91.8602 39.7316 91.7297 40.32 91.7297 41.1284C91.7297 41.9368 91.8602 42.5297 92.1204 42.907C92.3899 43.2752 92.7899 43.4594 93.3196 43.4594C93.8493 43.4594 94.2451 43.2752 94.5053 42.907C94.7747 42.5297 94.9095 41.9368 94.9095 41.1284C94.9095 40.32 94.7747 39.7316 94.5053 39.3634ZM95.8257 43.8232C95.2328 44.452 94.3975 44.7663 93.3196 44.7663C92.2417 44.7663 91.4021 44.452 90.8 43.8232C90.2072 43.1854 89.9107 42.2872 89.9107 41.1284C89.9107 39.9697 90.2072 39.076 90.8 38.4472C91.4021 37.8094 92.2417 37.4905 93.3196 37.4905C94.3975 37.4905 95.2328 37.8094 95.8257 38.4472C96.4278 39.076 96.7284 39.9697 96.7284 41.1284C96.7284 42.2872 96.4278 43.1854 95.8257 43.8232ZM99.5747 43.2303C99.5562 43.2483 99.552 43.2707 99.5613 43.2977C99.579 43.3156 99.6017 43.3246 99.6286 43.3246H102.108C102.189 43.3246 102.229 43.2887 102.229 43.2168V39.04C102.229 38.9682 102.189 38.9322 102.108 38.9322H100.383C100.311 38.9322 100.275 38.9682 100.275 39.04C100.275 40.1358 100.262 40.8949 100.235 41.3171C100.208 41.7303 100.149 42.0671 100.06 42.3276C99.979 42.5791 99.8173 42.88 99.5747 43.2303ZM97.7289 46.2484C97.5217 46.2484 97.3423 46.172 97.1899 46.0194C97.0459 45.8667 96.9743 45.687 96.9743 45.4804V43.8366C96.9743 43.6929 97.019 43.5716 97.1091 43.4728C97.2076 43.3741 97.3288 43.3246 97.4729 43.3246C97.5267 43.3246 97.5672 43.3067 97.5941 43.2707C97.9259 42.8575 98.1507 42.5207 98.2678 42.2602C98.384 41.9998 98.4606 41.6539 98.4968 41.2227C98.5415 40.7826 98.5642 40.0191 98.5642 38.9322V38.3933C98.5642 38.1867 98.64 38.007 98.7933 37.8543C98.9457 37.7016 99.1251 37.6253 99.3322 37.6253H103.186C103.392 37.6253 103.571 37.7016 103.725 37.8543C103.877 38.007 103.954 38.1867 103.954 38.3933V43.2168C103.954 43.2887 103.994 43.3246 104.075 43.3246H104.115C104.322 43.3246 104.497 43.401 104.641 43.5537C104.793 43.7064 104.87 43.8861 104.87 44.0926V45.4804C104.87 45.687 104.793 45.8667 104.641 46.0194C104.497 46.172 104.322 46.2484 104.115 46.2484H103.913C103.706 46.2484 103.527 46.172 103.374 46.0194C103.221 45.8667 103.145 45.687 103.145 45.4804V44.7528C103.145 44.672 103.105 44.6316 103.024 44.6316H98.8202C98.7394 44.6316 98.699 44.672 98.699 44.7528V45.4804C98.699 45.687 98.6223 45.8667 98.4699 46.0194C98.3166 46.172 98.1373 46.2484 97.931 46.2484H97.7289ZM108.592 44.7663C107.479 44.7663 106.621 44.4609 106.019 43.8501C105.417 43.2303 105.116 42.3231 105.116 41.1284C105.116 39.9518 105.404 39.0535 105.978 38.4337C106.563 37.8049 107.389 37.4905 108.457 37.4905C108.934 37.4905 109.392 37.5219 109.832 37.5848C110.039 37.6118 110.209 37.7061 110.344 37.8678C110.478 38.0295 110.546 38.2181 110.546 38.4337C110.546 38.6133 110.474 38.7571 110.33 38.8648C110.195 38.9726 110.039 39.0086 109.859 38.9726C109.508 38.9008 109.117 38.8648 108.686 38.8648C108.12 38.8648 107.699 39.0445 107.42 39.4038C107.142 39.7631 107.002 40.3379 107.002 41.1284C107.002 41.9368 107.15 42.5162 107.447 42.8665C107.743 43.2168 108.201 43.392 108.821 43.392C109.261 43.392 109.643 43.3516 109.966 43.2707C110.137 43.2259 110.29 43.2573 110.424 43.3651C110.568 43.4728 110.64 43.612 110.64 43.7827C110.64 43.9983 110.573 44.187 110.438 44.3486C110.312 44.5103 110.147 44.6091 109.939 44.6451C109.481 44.7259 109.032 44.7663 108.592 44.7663ZM112.039 38.9996C111.85 38.9996 111.688 38.9322 111.554 38.7975C111.419 38.6627 111.352 38.5011 111.352 38.3124C111.352 38.1238 111.419 37.9621 111.554 37.8274C111.688 37.6926 111.85 37.6253 112.039 37.6253H116.916C117.105 37.6253 117.267 37.6926 117.401 37.8274C117.536 37.9621 117.603 38.1238 117.603 38.3124C117.603 38.5011 117.536 38.6627 117.401 38.7975C117.267 38.9322 117.105 38.9996 116.916 38.9996H115.528C115.448 38.9996 115.407 39.0355 115.407 39.1074V43.8636C115.407 44.0702 115.331 44.2499 115.178 44.4025C115.026 44.5552 114.846 44.6316 114.639 44.6316H114.316C114.109 44.6316 113.93 44.5552 113.777 44.4025C113.624 44.2499 113.548 44.0702 113.548 43.8636V39.1074C113.548 39.0355 113.507 38.9996 113.427 38.9996H112.039ZM120.163 41.6135V43.4055C120.163 43.4773 120.204 43.5223 120.285 43.5402C120.392 43.5582 120.563 43.5672 120.797 43.5672C121.865 43.5672 122.4 43.2078 122.4 42.4893C122.4 41.8335 121.852 41.5057 120.756 41.5057H120.285C120.204 41.5057 120.163 41.5416 120.163 41.6135ZM120.163 38.8514V40.2931C120.163 40.3649 120.204 40.4008 120.285 40.4008H120.716C121.156 40.4008 121.501 40.32 121.753 40.1583C122.013 39.9966 122.144 39.7766 122.144 39.4981C122.144 38.9592 121.682 38.6897 120.756 38.6897C120.648 38.6897 120.487 38.6987 120.271 38.7166C120.2 38.7346 120.163 38.7795 120.163 38.8514ZM119.139 44.6585C118.924 44.6406 118.744 44.5507 118.6 44.3891C118.456 44.2184 118.385 44.0253 118.385 43.8097V38.4472C118.385 38.2226 118.456 38.0295 118.6 37.8678C118.744 37.7061 118.928 37.6163 119.153 37.5983C119.674 37.5534 120.159 37.531 120.608 37.531C122.746 37.531 123.815 38.1148 123.815 39.2825C123.815 39.6867 123.667 40.0326 123.37 40.32C123.083 40.5985 122.687 40.7826 122.184 40.8724L122.171 40.8859H122.184C122.787 40.9667 123.258 41.1644 123.599 41.4787C123.94 41.7842 124.111 42.1614 124.111 42.6105C124.111 44.0208 122.979 44.7259 120.716 44.7259C120.231 44.7259 119.705 44.7034 119.139 44.6585ZM127.752 38.7436C127.293 38.7436 126.939 38.8739 126.687 39.1343C126.445 39.3859 126.292 39.7945 126.229 40.3604C126.229 40.4323 126.265 40.4682 126.337 40.4682H128.978C129.05 40.4682 129.085 40.4323 129.085 40.3604C129.05 39.2825 128.605 38.7436 127.752 38.7436ZM128.088 44.7663C126.912 44.7663 126.005 44.4609 125.367 43.8501C124.739 43.2303 124.424 42.3231 124.424 41.1284C124.424 39.9427 124.707 39.04 125.272 38.4202C125.838 37.8004 126.656 37.4905 127.725 37.4905C129.719 37.4905 130.743 38.6223 130.797 40.8859C130.806 41.1015 130.729 41.2811 130.568 41.4248C130.406 41.5686 130.217 41.6404 130.002 41.6404H126.323C126.243 41.6404 126.211 41.6808 126.229 41.7617C126.292 42.3635 126.49 42.8036 126.822 43.0821C127.164 43.3516 127.657 43.4863 128.304 43.4863C128.708 43.4863 129.158 43.419 129.651 43.2842C129.813 43.2393 129.961 43.2663 130.096 43.3651C130.24 43.4638 130.312 43.5986 130.312 43.7693C130.312 43.9758 130.249 44.16 130.123 44.3217C130.007 44.4744 129.849 44.5687 129.651 44.6046C129.149 44.7124 128.627 44.7663 128.088 44.7663ZM132.332 44.6316C132.125 44.6316 131.945 44.5552 131.793 44.4025C131.649 44.2499 131.577 44.0702 131.577 43.8636V38.3933C131.577 38.1867 131.649 38.007 131.793 37.8543C131.945 37.7016 132.125 37.6253 132.332 37.6253H132.628C132.835 37.6253 133.014 37.7016 133.167 37.8543C133.32 38.007 133.396 38.1867 133.396 38.3933V40.1987C133.396 40.2796 133.437 40.32 133.517 40.32H135.781C135.862 40.32 135.902 40.2796 135.902 40.1987V38.3933C135.902 38.1867 135.978 38.007 136.131 37.8543C136.284 37.7016 136.463 37.6253 136.67 37.6253H136.967C137.173 37.6253 137.348 37.7016 137.492 37.8543C137.645 38.007 137.721 38.1867 137.721 38.3933V43.8636C137.721 44.0702 137.645 44.2499 137.492 44.4025C137.348 44.5552 137.173 44.6316 136.967 44.6316H136.67C136.463 44.6316 136.284 44.5552 136.131 44.4025C135.978 44.2499 135.902 44.0702 135.902 43.8636V41.7078C135.902 41.627 135.862 41.5865 135.781 41.5865H133.517C133.437 41.5865 133.396 41.627 133.396 41.7078V43.8636C133.396 44.0702 133.32 44.2499 133.167 44.4025C133.014 44.5552 132.835 44.6316 132.628 44.6316H132.332ZM139.658 44.6316C139.451 44.6316 139.272 44.5552 139.119 44.4025C138.975 44.2499 138.904 44.0702 138.904 43.8636V38.3933C138.904 38.1867 138.975 38.007 139.119 37.8543C139.272 37.7016 139.451 37.6253 139.658 37.6253H139.955C140.161 37.6253 140.34 37.7016 140.493 37.8543C140.646 38.007 140.723 38.1867 140.723 38.3933V40.1987C140.723 40.2796 140.763 40.32 140.844 40.32H143.107C143.188 40.32 143.229 40.2796 143.229 40.1987V38.3933C143.229 38.1867 143.304 38.007 143.458 37.8543C143.61 37.7016 143.789 37.6253 143.997 37.6253H144.293C144.499 37.6253 144.675 37.7016 144.819 37.8543C144.971 38.007 145.048 38.1867 145.048 38.3933V43.8636C145.048 44.0702 144.971 44.2499 144.819 44.4025C144.675 44.5552 144.499 44.6316 144.293 44.6316H143.997C143.789 44.6316 143.61 44.5552 143.458 44.4025C143.304 44.2499 143.229 44.0702 143.229 43.8636V41.7078C143.229 41.627 143.188 41.5865 143.107 41.5865H140.844C140.763 41.5865 140.723 41.627 140.723 41.7078V43.8636C140.723 44.0702 140.646 44.2499 140.493 44.4025C140.34 44.5552 140.161 44.6316 139.955 44.6316H139.658ZM149.531 41.2632C148.246 41.2632 147.604 41.6584 147.604 42.4488C147.604 42.7363 147.685 42.9699 147.847 43.1495C148.017 43.3291 148.232 43.419 148.493 43.419C149.005 43.419 149.418 43.2617 149.733 42.9474C150.047 42.624 150.205 42.1838 150.205 41.627V41.3844C150.205 41.3036 150.164 41.2632 150.083 41.2632H149.531ZM148.008 44.7663C147.397 44.7663 146.89 44.5687 146.486 44.1735C146.09 43.7693 145.893 43.2483 145.893 42.6105C145.893 41.8291 146.189 41.2227 146.782 40.7916C147.384 40.3604 148.3 40.1448 149.531 40.1448H150.083C150.164 40.1448 150.205 40.1044 150.205 40.0236V39.9158C150.205 39.5026 150.105 39.2152 149.908 39.0535C149.71 38.8828 149.36 38.7975 148.857 38.7975C148.336 38.7975 147.699 38.8918 146.944 39.0804C146.782 39.1253 146.634 39.0984 146.499 38.9996C146.365 38.8918 146.297 38.7526 146.297 38.5819C146.297 38.3753 146.36 38.1912 146.486 38.0295C146.611 37.8588 146.773 37.7555 146.971 37.7196C147.653 37.5669 148.296 37.4905 148.898 37.4905C150.047 37.4905 150.851 37.6971 151.309 38.1103C151.768 38.5235 151.997 39.2466 151.997 40.2796V43.8636C151.997 44.0702 151.92 44.2499 151.768 44.4025C151.624 44.5552 151.448 44.6316 151.242 44.6316H151.094C150.878 44.6316 150.694 44.5598 150.541 44.416C150.388 44.2633 150.307 44.0792 150.299 43.8636V43.675C150.299 43.6659 150.294 43.6615 150.285 43.6615C150.267 43.6615 150.259 43.6659 150.259 43.675C149.71 44.4025 148.96 44.7663 148.008 44.7663ZM156.019 38.811C154.923 38.811 154.375 39.1299 154.375 39.7676C154.375 40.4233 154.946 40.7512 156.086 40.7512H156.611C156.684 40.7512 156.719 40.7107 156.719 40.6299V38.9592C156.719 38.8783 156.684 38.8379 156.611 38.8379C156.342 38.82 156.145 38.811 156.019 38.811ZM154.348 41.4114C153.854 41.2766 153.45 41.052 153.135 40.7377C152.821 40.4143 152.664 40.0326 152.664 39.5924C152.664 38.2181 153.755 37.531 155.938 37.531C156.495 37.531 157.096 37.5534 157.743 37.5983C157.959 37.6073 158.139 37.6971 158.282 37.8678C158.435 38.0295 158.511 38.2181 158.511 38.4337V43.8636C158.511 44.0702 158.435 44.2499 158.282 44.4025C158.13 44.5552 157.95 44.6316 157.743 44.6316H157.487C157.281 44.6316 157.101 44.5552 156.948 44.4025C156.796 44.2499 156.719 44.0702 156.719 43.8636V42.0985C156.719 42.0267 156.684 41.9907 156.611 41.9907H156.167C155.816 41.9907 155.574 42.0356 155.439 42.1255C155.304 42.2063 155.156 42.4219 154.995 42.7722L154.496 43.931C154.397 44.1375 154.249 44.3082 154.051 44.443C153.863 44.5687 153.656 44.6316 153.432 44.6316H153.189C153.01 44.6316 152.871 44.5552 152.771 44.4025C152.682 44.2499 152.673 44.0926 152.744 43.931L153.324 42.6779C153.62 42.0402 153.966 41.6314 154.361 41.4518C154.371 41.4518 154.375 41.4473 154.375 41.4383C154.375 41.4204 154.366 41.4114 154.348 41.4114ZM165.306 38.8783C164.525 38.8783 164.134 39.6284 164.134 41.1284C164.134 42.6285 164.525 43.3785 165.306 43.3785C165.629 43.3785 165.912 43.2303 166.155 42.9339C166.2 42.889 166.222 42.8171 166.222 42.7183V39.5385C166.222 39.4398 166.2 39.3678 166.155 39.323C165.912 39.0265 165.629 38.8783 165.306 38.8783ZM167.974 39.5385V42.7183C167.974 42.8171 167.997 42.889 168.041 42.9339C168.284 43.2303 168.567 43.3785 168.89 43.3785C169.672 43.3785 170.062 42.6285 170.062 41.1284C170.062 39.6284 169.672 38.8783 168.89 38.8783C168.567 38.8783 168.284 39.0265 168.041 39.323C167.997 39.3768 167.974 39.4487 167.974 39.5385ZM164.902 44.7663C164.13 44.7663 163.523 44.4609 163.083 43.8501C162.643 43.2393 162.423 42.332 162.423 41.1284C162.423 39.9248 162.643 39.0175 163.083 38.4067C163.523 37.796 164.13 37.4905 164.902 37.4905C165.387 37.4905 165.814 37.6478 166.182 37.9621C166.191 37.9711 166.2 37.9756 166.209 37.9756C166.218 37.9756 166.222 37.9711 166.222 37.9621V35.2943C166.222 35.0878 166.299 34.908 166.451 34.7554C166.604 34.6027 166.784 34.5263 166.99 34.5263H167.206C167.412 34.5263 167.592 34.6027 167.745 34.7554C167.897 34.908 167.974 35.0878 167.974 35.2943V37.9621C167.974 37.9711 167.978 37.9756 167.987 37.9756C167.997 37.9756 168.005 37.9711 168.014 37.9621C168.382 37.6478 168.809 37.4905 169.294 37.4905C170.067 37.4905 170.673 37.796 171.113 38.4067C171.554 39.0175 171.773 39.9248 171.773 41.1284C171.773 42.332 171.554 43.2393 171.113 43.8501C170.673 44.4609 170.067 44.7663 169.294 44.7663C168.809 44.7663 168.382 44.6091 168.014 44.2947C168.005 44.2857 167.997 44.2813 167.987 44.2813C167.978 44.2813 167.974 44.2857 167.974 44.2947V46.8278C167.974 47.0344 167.897 47.2141 167.745 47.3667C167.592 47.5194 167.412 47.5958 167.206 47.5958H166.99C166.784 47.5958 166.604 47.5194 166.451 47.3667C166.299 47.2141 166.222 47.0344 166.222 46.8278V44.2947C166.222 44.2857 166.218 44.2813 166.209 44.2813C166.2 44.2813 166.191 44.2857 166.182 44.2947C165.814 44.6091 165.387 44.7663 164.902 44.7663ZM173.33 44.6316C173.123 44.6316 172.943 44.5552 172.791 44.4025C172.637 44.2499 172.562 44.0702 172.562 43.8636V38.3933C172.562 38.1867 172.637 38.007 172.791 37.8543C172.943 37.7016 173.123 37.6253 173.33 37.6253H173.586C173.792 37.6253 173.971 37.7016 174.125 37.8543C174.277 38.007 174.354 38.1867 174.354 38.3933V42.1794L174.367 42.1928L174.381 42.1794L176.55 38.2855C176.801 37.8453 177.183 37.6253 177.695 37.6253H177.992C178.198 37.6253 178.377 37.7016 178.531 37.8543C178.683 38.007 178.76 38.1867 178.76 38.3933V43.8636C178.76 44.0702 178.683 44.2499 178.531 44.4025C178.377 44.5552 178.198 44.6316 177.992 44.6316H177.736C177.528 44.6316 177.349 44.5552 177.197 44.4025C177.043 44.2499 176.968 44.0702 176.968 43.8636V40.0775L176.954 40.064L176.941 40.0775L174.771 43.9714C174.52 44.4115 174.138 44.6316 173.626 44.6316H173.33ZM181.719 40.2122V42.0446C181.719 42.404 181.871 42.7228 182.177 43.0013C182.491 43.2798 182.855 43.419 183.268 43.419C183.744 43.419 184.121 43.2259 184.4 42.8396C184.679 42.4533 184.818 41.883 184.818 41.1284C184.818 39.6014 184.301 38.8379 183.268 38.8379C182.855 38.8379 182.491 38.9771 182.177 39.2556C181.871 39.5341 181.719 39.8529 181.719 40.2122ZM180.708 47.5958C180.502 47.5958 180.322 47.5194 180.169 47.3667C180.017 47.2141 179.94 47.0344 179.94 46.8278V38.3933C179.94 38.1867 180.017 38.007 180.169 37.8543C180.322 37.7016 180.502 37.6253 180.708 37.6253H180.87C181.085 37.6253 181.27 37.7016 181.422 37.8543C181.575 37.9981 181.656 38.1777 181.665 38.3933V38.4876C181.665 38.4966 181.669 38.5011 181.678 38.5011C181.688 38.5011 181.696 38.4966 181.705 38.4876C182.029 38.1283 182.352 37.8723 182.675 37.7196C182.999 37.5669 183.376 37.4905 183.807 37.4905C184.652 37.4905 185.325 37.8094 185.828 38.4472C186.331 39.076 186.583 39.9697 186.583 41.1284C186.583 42.2512 186.317 43.1405 185.788 43.7962C185.267 44.443 184.606 44.7663 183.807 44.7663C183.026 44.7663 182.348 44.4834 181.773 43.9175C181.763 43.9085 181.755 43.904 181.746 43.904C181.736 43.904 181.732 43.9085 181.732 43.9175V46.8278C181.732 47.0344 181.656 47.2141 181.503 47.3667C181.359 47.5194 181.184 47.5958 180.978 47.5958H180.708ZM188.113 44.6316C187.907 44.6316 187.727 44.5552 187.574 44.4025C187.431 44.2499 187.358 44.0702 187.358 43.8636V38.3933C187.358 38.1867 187.431 38.007 187.574 37.8543C187.727 37.7016 187.907 37.6253 188.113 37.6253H188.49C189.002 37.6253 189.371 37.8543 189.595 38.3124L191.212 41.6C191.212 41.609 191.217 41.6135 191.225 41.6135L191.239 41.6L192.856 38.3124C193.08 37.8543 193.448 37.6253 193.96 37.6253H194.365C194.572 37.6253 194.747 37.7016 194.89 37.8543C195.043 38.007 195.119 38.1867 195.119 38.3933V43.8636C195.119 44.0702 195.043 44.2499 194.89 44.4025C194.747 44.5552 194.572 44.6316 194.365 44.6316H194.122C193.916 44.6316 193.736 44.5552 193.583 44.4025C193.431 44.2499 193.354 44.0702 193.354 43.8636V40.0101H193.327L192.236 42.2467C192.029 42.66 191.693 42.8665 191.225 42.8665C190.759 42.8665 190.422 42.66 190.215 42.2467L189.11 40.0101H189.096H189.083V43.8636C189.083 44.0702 189.007 44.2499 188.854 44.4025C188.711 44.5552 188.536 44.6316 188.328 44.6316H188.113ZM199.604 41.2632C198.32 41.2632 197.677 41.6584 197.677 42.4488C197.677 42.7363 197.758 42.9699 197.92 43.1495C198.091 43.3291 198.307 43.419 198.567 43.419C199.079 43.419 199.492 43.2617 199.806 42.9474C200.121 42.624 200.278 42.1838 200.278 41.627V41.3844C200.278 41.3036 200.237 41.2632 200.157 41.2632H199.604ZM198.082 44.7663C197.471 44.7663 196.963 44.5687 196.559 44.1735C196.164 43.7693 195.966 43.2483 195.966 42.6105C195.966 41.8291 196.263 41.2227 196.856 40.7916C197.458 40.3604 198.374 40.1448 199.604 40.1448H200.157C200.237 40.1448 200.278 40.1044 200.278 40.0236V39.9158C200.278 39.5026 200.179 39.2152 199.981 39.0535C199.784 38.8828 199.434 38.7975 198.931 38.7975C198.41 38.7975 197.772 38.8918 197.017 39.0804C196.856 39.1253 196.707 39.0984 196.573 38.9996C196.438 38.8918 196.371 38.7526 196.371 38.5819C196.371 38.3753 196.434 38.1912 196.559 38.0295C196.685 37.8588 196.847 37.7555 197.044 37.7196C197.727 37.5669 198.37 37.4905 198.971 37.4905C200.121 37.4905 200.925 37.6971 201.383 38.1103C201.841 38.5235 202.07 39.2466 202.07 40.2796V43.8636C202.07 44.0702 201.994 44.2499 201.841 44.4025C201.698 44.5552 201.523 44.6316 201.315 44.6316H201.167C200.952 44.6316 200.768 44.5598 200.615 44.416C200.462 44.2633 200.381 44.0792 200.372 43.8636V43.675C200.372 43.6659 200.368 43.6615 200.359 43.6615C200.341 43.6615 200.332 43.6659 200.332 43.675C199.784 44.4025 199.034 44.7663 198.082 44.7663Z" fill="white"/>
</g>
<defs>
<clipPath id="clip0_15_422">
<rect width="202.105" height="48" fill="white"/>
</clipPath>
</defs>
</svg>
