<svg width="133" height="23" viewBox="0 0 133 23" fill="none" xmlns="http://www.w3.org/2000/svg">
<path d="M1.93137 3.1214C1.58704 3.1214 1.28762 3.00164 1.03312 2.76211C0.778621 2.5076 0.651367 2.20819 0.651367 1.86386V1.79649C0.651367 1.45217 0.778621 1.15275 1.03312 0.898246C1.28762 0.643745 1.58704 0.516492 1.93137 0.516492H11.4977C11.842 0.516492 12.1414 0.643745 12.3959 0.898246C12.6504 1.15275 12.7777 1.45217 12.7777 1.79649V1.86386C12.7777 2.20819 12.6504 2.5076 12.3959 2.76211C12.1414 3.00164 11.842 3.1214 11.4977 3.1214H8.48856C8.36881 3.1214 8.30891 3.18877 8.30891 3.32351V15.6295C8.30891 15.9738 8.18164 16.2732 7.92716 16.5277C7.67267 16.7822 7.37322 16.9095 7.02891 16.9095H6.40014C6.05583 16.9095 5.75638 16.7822 5.50189 16.5277C5.24739 16.2732 5.12014 15.9738 5.12014 15.6295V3.32351C5.12014 3.18877 5.06025 3.1214 4.94049 3.1214H1.93137ZM19.9286 11.2954C17.7878 11.2954 16.7173 11.9541 16.7173 13.2716C16.7173 13.7506 16.8521 14.1399 17.1215 14.4393C17.406 14.7387 17.7653 14.8884 18.1994 14.8884C19.0528 14.8884 19.7414 14.6264 20.2654 14.1025C20.7894 13.5635 21.0514 12.8299 21.0514 11.9018V11.4975C21.0514 11.3628 20.984 11.2954 20.8493 11.2954H19.9286ZM17.391 17.134C16.373 17.134 15.5272 16.8047 14.8535 16.146C14.1948 15.4723 13.8654 14.604 13.8654 13.5411C13.8654 12.2386 14.3594 11.2281 15.3475 10.5095C16.3506 9.79088 17.8776 9.43158 19.9286 9.43158H20.8493C20.984 9.43158 21.0514 9.36421 21.0514 9.22947V9.04982C21.0514 8.36115 20.8867 7.8821 20.5573 7.61263C20.228 7.32817 19.6441 7.18597 18.8058 7.18597C17.9374 7.18597 16.8745 7.34316 15.617 7.65754C15.3475 7.73238 15.1005 7.68747 14.8759 7.52281C14.6514 7.34316 14.5391 7.11113 14.5391 6.82667C14.5391 6.48236 14.6439 6.17544 14.8535 5.90596C15.063 5.6215 15.3325 5.44938 15.6619 5.38947C16.7997 5.13499 17.8701 5.00772 18.8731 5.00772C20.7894 5.00772 22.1293 5.35203 22.8928 6.0407C23.6563 6.72938 24.038 7.93448 24.038 9.65614V15.6295C24.038 15.9738 23.9108 16.2732 23.6563 16.5277C23.4167 16.7822 23.1248 16.9095 22.7805 16.9095H22.5335C22.1742 16.9095 21.8673 16.7897 21.6128 16.5502C21.3583 16.2957 21.2236 15.9888 21.2086 15.6295V15.3151C21.2086 15.3001 21.2011 15.2926 21.1861 15.2926C21.1562 15.2926 21.1412 15.3001 21.1412 15.3151C20.228 16.5277 18.9779 17.134 17.391 17.134ZM27.1717 16.9095C26.8274 16.9095 26.528 16.7822 26.2735 16.5277C26.0189 16.2732 25.8917 15.9738 25.8917 15.6295V6.51228C25.8917 6.16797 26.0189 5.86852 26.2735 5.61404C26.528 5.35955 26.8274 5.23228 27.1717 5.23228H27.5984C27.9427 5.23228 28.2421 5.35955 28.4966 5.61404C28.7511 5.86852 28.8784 6.16797 28.8784 6.51228V12.8225L28.9009 12.8449L28.9233 12.8225L32.5387 6.33263C32.9579 5.59905 33.5942 5.23228 34.4475 5.23228H34.9416C35.2859 5.23228 35.5853 5.35955 35.8398 5.61404C36.0943 5.86852 36.2216 6.16797 36.2216 6.51228V15.6295C36.2216 15.9738 36.0943 16.2732 35.8398 16.5277C35.5853 16.7822 35.2859 16.9095 34.9416 16.9095H34.5149C34.1705 16.9095 33.8711 16.7822 33.6166 16.5277C33.3621 16.2732 33.2349 15.9738 33.2349 15.6295V9.3193L33.2124 9.29684L33.19 9.3193L29.5745 15.8091C29.1553 16.5427 28.5191 16.9095 27.6658 16.9095H27.1717ZM34.4251 0H34.47C34.7993 0 35.0688 0.112281 35.2784 0.336843C35.488 0.561404 35.5404 0.823394 35.4356 1.12281C35.1661 1.96117 34.6346 2.63485 33.8412 3.14386C33.0627 3.63789 32.1345 3.88491 31.0566 3.88491C29.9788 3.88491 29.0431 3.63789 28.2496 3.14386C27.4711 2.63485 26.9472 1.96117 26.6777 1.12281C26.5729 0.823394 26.6253 0.561404 26.8349 0.336843C27.0445 0.112281 27.3139 0 27.6433 0H27.6882C28.1823 0 28.6613 0.336843 29.1254 1.01053C29.5446 1.62433 30.1883 1.93123 31.0566 1.93123C31.9249 1.93123 32.5687 1.62433 32.9879 1.01053C33.4519 0.336843 33.931 0 34.4251 0ZM42.3219 7.3207C41.0194 7.3207 40.3682 8.57078 40.3682 11.0709C40.3682 13.571 41.0194 14.8211 42.3219 14.8211C42.8608 14.8211 43.3324 14.574 43.7366 14.08C43.8115 14.0052 43.8489 13.8854 43.8489 13.7207V8.42105C43.8489 8.25639 43.8115 8.13659 43.7366 8.06175C43.3324 7.56772 42.8608 7.3207 42.3219 7.3207ZM46.7682 8.42105V13.7207C46.7682 13.8854 46.8056 14.0052 46.8805 14.08C47.2847 14.574 47.7563 14.8211 48.2952 14.8211C49.5977 14.8211 50.2489 13.571 50.2489 11.0709C50.2489 8.57078 49.5977 7.3207 48.2952 7.3207C47.7563 7.3207 47.2847 7.56772 46.8805 8.06175C46.8056 8.15158 46.7682 8.27133 46.7682 8.42105ZM41.6482 17.134C40.3607 17.134 39.3502 16.625 38.6166 15.607C37.8831 14.589 37.5163 13.0769 37.5163 11.0709C37.5163 9.06481 37.8831 7.55273 38.6166 6.53474C39.3502 5.51674 40.3607 5.00772 41.6482 5.00772C42.4566 5.00772 43.1677 5.26973 43.7815 5.79368C43.7965 5.80867 43.8115 5.81614 43.8264 5.81614C43.8414 5.81614 43.8489 5.80867 43.8489 5.79368V1.34737C43.8489 1.00304 43.9762 0.703624 44.2306 0.449123C44.4852 0.194617 44.7846 0.0673679 45.1289 0.0673679H45.4882C45.8326 0.0673679 46.132 0.194617 46.3864 0.449123C46.641 0.703624 46.7682 1.00304 46.7682 1.34737V5.79368C46.7682 5.80867 46.7757 5.81614 46.7906 5.81614C46.8056 5.81614 46.8206 5.80867 46.8356 5.79368C47.4494 5.26973 48.1605 5.00772 48.9689 5.00772C50.2564 5.00772 51.2669 5.51674 52.0005 6.53474C52.7341 7.55273 53.1008 9.06481 53.1008 11.0709C53.1008 13.0769 52.7341 14.589 52.0005 15.607C51.2669 16.625 50.2564 17.134 48.9689 17.134C48.1605 17.134 47.4494 16.872 46.8356 16.3481C46.8206 16.3331 46.8056 16.3256 46.7906 16.3256C46.7757 16.3256 46.7682 16.3331 46.7682 16.3481V20.5698C46.7682 20.9141 46.641 21.2136 46.3864 21.4681C46.132 21.7226 45.8326 21.8498 45.4882 21.8498H45.1289C44.7846 21.8498 44.4852 21.7226 44.2306 21.4681C43.9762 21.2136 43.8489 20.9141 43.8489 20.5698V16.3481C43.8489 16.3331 43.8414 16.3256 43.8264 16.3256C43.8115 16.3256 43.7965 16.3331 43.7815 16.3481C43.1677 16.872 42.4566 17.134 41.6482 17.134ZM57.8943 16.7298L53.8523 6.42246C53.7325 6.13799 53.7549 5.86852 53.9196 5.61404C54.0993 5.35955 54.3463 5.23228 54.6607 5.23228H55.3793C55.7535 5.23228 56.0904 5.34456 56.3898 5.56912C56.689 5.79368 56.8989 6.08561 57.0185 6.44491L59.354 13.8105C59.354 13.8255 59.3613 13.833 59.3764 13.833C59.3916 13.833 59.3989 13.8255 59.3989 13.8105L61.7343 6.44491C61.8393 6.08561 62.0414 5.79368 62.3406 5.56912C62.6399 5.34456 62.9846 5.23228 63.3736 5.23228H63.9575C64.2567 5.23228 64.4964 5.35955 64.6761 5.61404C64.8557 5.86852 64.8933 6.13799 64.7883 6.42246L60.8361 16.9768C60.1775 18.7284 59.4213 19.9785 58.568 20.727C57.7298 21.4755 56.5694 21.9097 55.0874 22.0295C54.773 22.0445 54.496 21.9396 54.2565 21.7151C54.0319 21.5055 53.9196 21.2435 53.9196 20.9291C53.9196 20.6147 54.0319 20.3378 54.2565 20.0982C54.481 19.8737 54.758 19.7464 55.0874 19.7165C55.8209 19.6267 56.3898 19.3871 56.794 18.9979C57.1982 18.6236 57.5648 17.9874 57.8943 17.0891C57.9095 17.0292 57.9168 16.9694 57.9168 16.9095C57.9168 16.8496 57.9095 16.7897 57.8943 16.7298ZM67.0048 16.9095C66.6601 16.9095 66.3608 16.7822 66.1065 16.5277C65.8668 16.2732 65.7472 15.9738 65.7472 15.6295V6.51228C65.7472 6.16797 65.8668 5.86852 66.1065 5.61404C66.3608 5.35955 66.6601 5.23228 67.0048 5.23228H67.4988C67.8429 5.23228 68.1422 5.35955 68.397 5.61404C68.6514 5.86852 68.7788 6.16797 68.7788 6.51228V9.5214C68.7788 9.65614 68.8462 9.72351 68.9809 9.72351H72.7535C72.8883 9.72351 72.9556 9.65614 72.9556 9.5214V6.51228C72.9556 6.16797 73.0825 5.86852 73.3374 5.61404C73.5917 5.35955 73.8909 5.23228 74.2356 5.23228H74.7297C75.0738 5.23228 75.3658 5.35955 75.6055 5.61404C75.8598 5.86852 75.9872 6.16797 75.9872 6.51228V15.6295C75.9872 15.9738 75.8598 16.2732 75.6055 16.5277C75.3658 16.7822 75.0738 16.9095 74.7297 16.9095H74.2356C73.8909 16.9095 73.5917 16.7822 73.3374 16.5277C73.0825 16.2732 72.9556 15.9738 72.9556 15.6295V12.0365C72.9556 11.9018 72.8883 11.8344 72.7535 11.8344H68.9809C68.8462 11.8344 68.7788 11.9018 68.7788 12.0365V15.6295C68.7788 15.9738 68.6514 16.2732 68.397 16.5277C68.1422 16.7822 67.8429 16.9095 67.4988 16.9095H67.0048ZM79.2827 11.5874C78.9531 11.5874 78.6685 11.4751 78.4293 11.2505C78.1896 11.011 78.07 10.7266 78.07 10.3972C78.07 10.0678 78.1896 9.79088 78.4293 9.56632C78.6685 9.32676 78.9531 9.20702 79.2827 9.20702H84.3577C84.6867 9.20702 84.9714 9.32676 85.2111 9.56632C85.4502 9.79088 85.5704 10.0678 85.5704 10.3972C85.5704 10.7266 85.4502 11.011 85.2111 11.2505C84.9714 11.4751 84.6867 11.5874 84.3577 11.5874H79.2827ZM88.2966 16.6175C87.9373 16.5127 87.6453 16.3032 87.4208 15.9888C87.2114 15.6744 87.1064 15.3226 87.1064 14.9333V14.7088C87.1064 14.4094 87.2265 14.1773 87.4657 14.0126C87.7206 13.848 87.99 13.818 88.2741 13.9228C89.5766 14.3719 90.7594 14.5965 91.8222 14.5965C92.8552 14.5965 93.6411 14.3719 94.1801 13.9228C94.7342 13.4737 95.0109 12.8449 95.0109 12.0365C95.0109 11.2281 94.682 10.6367 94.0229 10.2625C93.3643 9.87323 92.2191 9.67113 90.5871 9.65614C90.2429 9.65614 89.951 9.53639 89.7113 9.29684C89.4721 9.04236 89.352 8.7429 89.352 8.3986C89.352 8.05429 89.4721 7.76236 89.7113 7.52281C89.9662 7.26832 90.2654 7.14105 90.6095 7.14105C93.3795 7.09614 94.7639 6.29519 94.7639 4.73825C94.7639 3.46573 93.8062 2.82947 91.8895 2.82947C90.7819 2.82947 89.6439 3.04655 88.4762 3.4807C88.1921 3.5855 87.9227 3.55555 87.6678 3.39088C87.4135 3.2262 87.286 2.99415 87.286 2.69474V2.49263C87.286 2.10339 87.3983 1.75158 87.6229 1.43719C87.8474 1.12281 88.1394 0.913219 88.4987 0.808422C89.7113 0.464096 90.9913 0.29193 92.3387 0.29193C94.0605 0.29193 95.4006 0.643745 96.3583 1.34737C97.3318 2.05099 97.818 2.99415 97.818 4.17684C97.818 5.23975 97.5485 6.09308 97.0095 6.73684C96.4858 7.3806 95.6397 7.86712 94.472 8.19649C94.4574 8.19649 94.4495 8.20396 94.4495 8.21895C94.4495 8.24887 94.4574 8.26386 94.472 8.26386C95.6549 8.44351 96.5531 8.87017 97.1667 9.54386C97.7955 10.2026 98.1099 11.0859 98.1099 12.1937C98.1099 13.7506 97.5709 14.9633 96.493 15.8316C95.4152 16.6999 93.9106 17.134 91.9794 17.134C90.7218 17.134 89.4946 16.9619 88.2966 16.6175ZM104.81 11.2954C102.669 11.2954 101.599 11.9541 101.599 13.2716C101.599 13.7506 101.734 14.1399 102.003 14.4393C102.287 14.7387 102.647 14.8884 103.081 14.8884C103.934 14.8884 104.623 14.6264 105.147 14.1025C105.671 13.5635 105.933 12.8299 105.933 11.9018V11.4975C105.933 11.3628 105.866 11.2954 105.731 11.2954H104.81ZM102.273 17.134C101.254 17.134 100.409 16.8047 99.7352 16.146C99.0761 15.4723 98.7471 14.604 98.7471 13.5411C98.7471 12.2386 99.2411 11.2281 100.229 10.5095C101.232 9.79088 102.759 9.43158 104.81 9.43158H105.731C105.866 9.43158 105.933 9.36421 105.933 9.22947V9.04982C105.933 8.36115 105.768 7.8821 105.439 7.61263C105.109 7.32817 104.526 7.18597 103.687 7.18597C102.819 7.18597 101.756 7.34316 100.499 7.65754C100.229 7.73238 99.9822 7.68747 99.7576 7.52281C99.533 7.34316 99.4208 7.11113 99.4208 6.82667C99.4208 6.48236 99.5252 6.17544 99.7352 5.90596C99.9446 5.6215 100.214 5.44938 100.544 5.38947C101.681 5.13499 102.752 5.00772 103.755 5.00772C105.671 5.00772 107.011 5.35203 107.774 6.0407C108.538 6.72938 108.92 7.93448 108.92 9.65614V15.6295C108.92 15.9738 108.792 16.2732 108.538 16.5277C108.298 16.7822 108.006 16.9095 107.662 16.9095H107.415C107.056 16.9095 106.749 16.7897 106.494 16.5502C106.24 16.2957 106.105 15.9888 106.09 15.6295V15.3151C106.09 15.3001 106.082 15.2926 106.068 15.2926C106.037 15.2926 106.023 15.3001 106.023 15.3151C105.109 16.5277 103.859 17.134 102.273 17.134ZM113.738 9.54386V12.5979C113.738 13.1967 113.992 13.7282 114.501 14.1923C115.025 14.6564 115.631 14.8884 116.32 14.8884C117.113 14.8884 117.742 14.5666 118.206 13.9228C118.67 13.279 118.903 12.3284 118.903 11.0709C118.903 8.52587 118.041 7.25333 116.32 7.25333C115.631 7.25333 115.025 7.48536 114.501 7.94947C113.992 8.41359 113.738 8.94501 113.738 9.54386ZM112.053 21.8498C111.709 21.8498 111.41 21.7226 111.155 21.4681C110.9 21.2136 110.773 20.9141 110.773 20.5698V6.51228C110.773 6.16797 110.9 5.86852 111.155 5.61404C111.41 5.35955 111.709 5.23228 112.053 5.23228H112.323C112.682 5.23228 112.989 5.35955 113.244 5.61404C113.498 5.85359 113.633 6.15298 113.648 6.51228V6.66947C113.648 6.68446 113.655 6.69193 113.67 6.69193C113.685 6.69193 113.7 6.68446 113.715 6.66947C114.254 6.07062 114.793 5.64396 115.332 5.38947C115.871 5.13499 116.5 5.00772 117.218 5.00772C118.625 5.00772 119.748 5.5392 120.587 6.60211C121.425 7.65008 121.844 9.13965 121.844 11.0709C121.844 12.9422 121.403 14.4243 120.519 15.5172C119.651 16.5951 118.551 17.134 117.218 17.134C115.916 17.134 114.785 16.6625 113.828 15.7193C113.812 15.7043 113.797 15.6968 113.783 15.6968C113.767 15.6968 113.76 15.7043 113.76 15.7193V20.5698C113.76 20.9141 113.633 21.2136 113.378 21.4681C113.139 21.7226 112.847 21.8498 112.503 21.8498H112.053ZM127.988 7.20842C126.162 7.20842 125.248 7.7399 125.248 8.80281C125.248 9.89569 126.199 10.4421 128.1 10.4421H128.976C129.095 10.4421 129.156 10.3747 129.156 10.24V7.45544C129.156 7.3207 129.095 7.25333 128.976 7.25333C128.527 7.22341 128.197 7.20842 127.988 7.20842ZM125.203 11.5425C124.38 11.3179 123.706 10.9436 123.182 10.4196C122.658 9.8807 122.396 9.24446 122.396 8.51088C122.396 6.22035 124.215 5.07509 127.853 5.07509C128.781 5.07509 129.784 5.11252 130.862 5.18737C131.221 5.20236 131.521 5.35203 131.76 5.63649C132.015 5.90596 132.142 6.22035 132.142 6.57965V15.6295C132.142 15.9738 132.015 16.2732 131.76 16.5277C131.506 16.7822 131.206 16.9095 130.862 16.9095H130.436C130.091 16.9095 129.792 16.7822 129.537 16.5277C129.283 16.2732 129.156 15.9738 129.156 15.6295V12.6877C129.156 12.568 129.095 12.5081 128.976 12.5081H128.235C127.651 12.5081 127.247 12.5829 127.022 12.7326C126.798 12.8674 126.551 13.2267 126.281 13.8105L125.45 15.7418C125.286 16.0861 125.039 16.3705 124.709 16.5951C124.395 16.8047 124.051 16.9095 123.676 16.9095H123.272C122.973 16.9095 122.74 16.7822 122.576 16.5277C122.426 16.2732 122.411 16.0112 122.531 15.7418L123.497 13.6533C123.991 12.5904 124.567 11.9092 125.226 11.6098C125.241 11.6098 125.248 11.6024 125.248 11.5874C125.248 11.5574 125.233 11.5425 125.203 11.5425Z" fill="white"/>
</svg>
