<svg width="48" height="48" viewBox="0 0 48 48" fill="none" xmlns="http://www.w3.org/2000/svg">
<circle cx="24" cy="24" r="24" fill="#C1162A"/>
<path d="M31.5 22.3333C31.5 28.1666 24 33.1666 24 33.1666C24 33.1666 16.5 28.1666 16.5 22.3333C16.5 20.3442 17.2902 18.4365 18.6967 17.03C20.1032 15.6235 22.0109 14.8333 24 14.8333C25.9891 14.8333 27.8968 15.6235 29.3033 17.03C30.7098 18.4365 31.5 20.3442 31.5 22.3333Z" stroke="white" stroke-width="1.5" stroke-linecap="round" stroke-linejoin="round"/>
<path d="M24 24.8333C25.3807 24.8333 26.5 23.714 26.5 22.3333C26.5 20.9526 25.3807 19.8333 24 19.8333C22.6193 19.8333 21.5 20.9526 21.5 22.3333C21.5 23.714 22.6193 24.8333 24 24.8333Z" stroke="white" stroke-width="1.5" stroke-linecap="round" stroke-linejoin="round"/>
</svg>
