<svg width="49" height="48" fill="none" xmlns="http://www.w3.org/2000/svg"><path d="M37.15 46.125h-25.5m23.625-22.5h-12.75m-3 0H13.15m0-21.375v.5a1 1 0 01-1 1h-1a1 1 0 00-1 1v2.125a1 1 0 001 1h8.375m3.75 0H37.65a1 1 0 001-1V4.75a1 1 0 00-1-1h-1a1 1 0 01-1-1v-.5M28.15 30v11.25L24.4 45l-3.75-3.75V30m7.5.75l-7.5 3.75m7.5 2.25l-7.5 3.75m12-32.25v4.625a1 1 0 001 1h1a1 1 0 011 1v8.805a1 1 0 01-.186.58l-3.265 4.571a1 1 0 01-.814.419H18.461a1 1 0 01-.733-.32l-4.31-4.642a1 1 0 01-.268-.68v-8.733a1 1 0 011-1h1.375a1 1 0 001-1V8.25" stroke="#fff" stroke-width="1.7" stroke-linecap="round"/></svg>