<svg width="49" height="48" fill="none" xmlns="http://www.w3.org/2000/svg"><g clip-path="url(#clip0_100_1455)" stroke="#fff" stroke-width="1.7"><path d="M24.8 1.982l1.728 1.811.49.515.594-.393L29.7 2.534l1.28 2.15.365.611.666-.25 2.342-.883.771 2.382.219.677.705-.097 2.48-.339.221 2.494.063.709.709.063 2.494.22-.34 2.481-.096.705.677.219 2.382.77-.883 2.343-.25.666.61.364 2.151 1.281-1.381 2.088-.393.593.515.491L46.818 24l-1.811 1.728-.515.49.393.594 1.381 2.088-2.15 1.28-.612.365.251.666.883 2.342-2.382.771-.677.219.096.705.34 2.48-2.494.221-.709.063-.063.71-.22 2.493-2.481-.34-.705-.096-.219.677-.77 2.382-2.343-.883-.666-.25-.364.61-1.282 2.151-2.087-1.381-.593-.393-.491.515-1.728 1.811-1.728-1.811-.49-.515-.594.393-2.088 1.381-1.28-2.15-.365-.611-.666.25-2.342.883-.771-2.382-.22-.677-.704.096-2.48.34-.222-2.494-.063-.709-.708-.063-2.494-.22.34-2.481.096-.705-.677-.219-2.382-.77.883-2.343.25-.666-.61-.364L3.333 28.9l1.381-2.088.393-.593-.515-.491L2.782 24l1.811-1.728.515-.49-.393-.594L3.334 19.1l2.15-1.28.611-.365-.25-.666-.883-2.342 2.382-.771.677-.219-.097-.705-.339-2.48 2.494-.222.708-.062.063-.71.222-2.493 2.48.34.705.096.219-.677.77-2.382 2.343.883.666.25.364-.61L19.9 2.533l2.088 1.381.593.393.491-.515 1.728-1.81z"/><circle cx="24.8" cy="24" r="16.4"/></g><defs><clipPath id="clip0_100_1455"><path fill="#fff" transform="translate(.8)" d="M0 0h48v48H0z"/></clipPath></defs></svg>