<svg width="48" height="48" fill="none" xmlns="http://www.w3.org/2000/svg"><path d="M31.875 2.25h10.5v4.5H18v-4.5" stroke="#fff" stroke-width="1.7" stroke-linecap="round"/><path d="M38.35 7.5a.85.85 0 00-1.7 0h1.7zm-.85 4.125l.675.516.175-.228v-.288h-.85zm-14.625 0h-.85v.321l.213.241.637-.562zm.85-4.125a.85.85 0 00-1.7 0h1.7zm4.476 10.162l-.637.562.637-.562zM36.65 7.5v4.125h1.7V7.5h-1.7zm.175 3.609L32.25 17.09l1.35 1.033 4.575-5.983-1.35-1.032zM32.13 17.15h-3.18v1.7h3.18v-1.7zm-3.292-.05l-5.327-6.037-1.274 1.124 5.326 6.037 1.275-1.125zm-5.114-5.475V7.5h-1.7v4.125h1.7zm5.226 5.525a.15.15 0 01-.112-.05l-1.275 1.124a1.85 1.85 0 001.387.626v-1.7zm3.299-.059a.15.15 0 01-.12.059v1.7a1.85 1.85 0 001.47-.726l-1.35-1.033z" fill="#fff"/><path d="M27.375 10.875h-4.5M1.5 33h6.984a1 1 0 011 1v6.25a1 1 0 001 1h27.395a1 1 0 001-1V34a1 1 0 011-1H46.5m-45 13.5h45M34.875 30.375l6.375-5.625M33 29.25c0-.6 2.75-6.25 4.125-9m-6.75 10.875V21.75m-2.25 7.125c-1.5-3.75-2.25-6.375-3.375-9.375m1.125 10.875L20.25 24.75m4.5 8.625L16.5 29.25m8.25 6h-9" stroke="#fff" stroke-width="1.7" stroke-linecap="round"/><circle cx="30.75" cy="34.5" r="1.125" fill="#fff"/><circle cx="11.25" cy="25.5" r="1.125" fill="#fff"/><circle cx="43.5" cy="20.25" r="1.125" fill="#fff"/></svg>