<svg width="49" height="48" fill="none" xmlns="http://www.w3.org/2000/svg"><g clip-path="url(#clip0_100_1380)" fill="#fff"><path fill-rule="evenodd" clip-rule="evenodd" d="M16.52 4.34c2.018 2.549 6.074 1.742 6.964-1.385a.552.552 0 01.21-.322.622.622 0 01.356-.106c.144 0 .269.043.357.106a.552.552 0 01.21.322c.889 3.127 4.945 3.934 6.963 1.385a.552.552 0 01.317-.218.623.623 0 01.37.04.622.622 0 01.29.234.55.55 0 01.07.378c-.375 3.23 3.063 5.527 5.903 3.945a.552.552 0 01.377-.08.623.623 0 01.326.178c.102.101.16.22.178.326a.552.552 0 01-.08.377c-1.582 2.84.716 6.278 3.945 5.903a.55.55 0 01.378.07.623.623 0 01.234.29.622.622 0 01.04.37.552.552 0 01-.218.317c-2.549 2.018-1.742 6.074 1.385 6.964.18.05.27.133.322.21a.623.623 0 01.106.356.623.623 0 01-.106.357.552.552 0 01-.322.21c-3.127.889-3.934 4.945-1.385 6.963a.552.552 0 01.218.317.622.622 0 01-.04.37.623.623 0 01-.233.29.552.552 0 01-.379.07c-3.23-.375-5.527 3.063-3.945 5.903a.553.553 0 01.08.377.622.622 0 01-.178.326.623.623 0 01-.326.178.552.552 0 01-.377-.08c-2.84-1.582-6.278.716-5.903 3.945a.55.55 0 01-.07.378.623.623 0 01-.29.234.623.623 0 01-.37.04.552.552 0 01-.317-.218 5.533 5.533 0 00-.03-.038v1.92c1.401.297 2.964-.805 2.765-2.512-.215-1.853 1.758-3.171 3.388-2.264 2.014 1.122 4.235-1.1 3.113-3.113-.907-1.63.411-3.603 2.264-3.387 2.29.265 3.492-2.638 1.685-4.068-1.462-1.159-1-3.486.795-3.996 2.217-.631 2.217-3.773 0-4.404-1.794-.51-2.257-2.837-.795-3.995 1.807-1.431.605-4.334-1.685-4.069-1.853.216-3.171-1.757-2.264-3.387 1.122-2.014-1.1-4.235-3.113-3.114-1.63.908-3.603-.41-3.388-2.263.266-2.29-2.637-3.492-4.067-1.685-1.159 1.462-3.486 1-3.996-.795-.631-2.217-3.773-2.217-4.404 0-.51 1.794-2.837 2.257-3.995.795-1.431-1.807-4.334-.605-4.069 1.685.216 1.853-1.757 3.171-3.387 2.263-2.014-1.121-4.235 1.1-3.114 3.114.908 1.63-.41 3.603-2.263 3.388-2.29-.266-3.492 2.637-1.685 4.067 1.462 1.159 1 3.486-.795 3.996-2.217.631-2.217 3.773 0 4.404 1.794.51 2.257 2.837.795 3.995-1.807 1.431-.605 4.334 1.685 4.069 1.853-.216 3.171 1.757 2.263 3.387-1.121 2.014 1.1 4.235 3.114 3.114 1.63-.908 3.603.41 3.387 2.263-.198 1.707 1.365 2.81 2.766 2.512v-1.92l-.03.038a.552.552 0 01-.317.218.623.623 0 01-.37-.04.623.623 0 01-.29-.234.55.55 0 01-.07-.378c.375-3.23-3.063-5.527-5.903-3.945a.552.552 0 01-.377.08.623.623 0 01-.326-.178.623.623 0 01-.178-.326.552.552 0 01.08-.377c1.582-2.84-.716-6.278-3.945-5.903a.552.552 0 01-.378-.07.622.622 0 01-.234-.29.623.623 0 01-.04-.37.552.552 0 01.218-.317c2.549-2.018 1.742-6.074-1.385-6.964a.552.552 0 01-.322-.21.623.623 0 01-.106-.356c0-.144.043-.269.106-.357a.551.551 0 01.322-.21c3.127-.889 3.934-4.945 1.385-6.963a.552.552 0 01-.217-.317.623.623 0 01.039-.37.623.623 0 01.234-.29.552.552 0 01.378-.07c3.23.375 5.527-3.063 3.945-5.903a.552.552 0 01-.08-.377.623.623 0 01.178-.326.623.623 0 01.326-.178.552.552 0 01.377.08c2.84 1.582 6.278-.716 5.903-3.945a.551.551 0 01.07-.378.622.622 0 01.29-.234.623.623 0 01.37-.04c.09.02.2.072.317.218z"/><path d="M26.79 28.583l-.51-.68-.34.256v.424h.85zm-5.847 0h.85v-.404l-.314-.255-.536.66zm-4.162-10.57l-.714-.46.715.46zm13.949 7.614l-.51-.68.51.68zM27.64 46.5V28.583h-1.7V46.5h1.7zm-.34-17.237l3.94-2.956-1.02-1.36-3.94 2.956 1.02 1.36zm-1.345-13.906v5.31h1.7v-5.31h-1.7zm-4.177 5.31v-5.325h-1.7v5.325h1.7zm-4.979 5.643l3.608 2.933 1.072-1.32-3.607-2.932-1.073 1.32zm3.294 2.273V46.5h1.7V28.583h-1.7zM17 16.105l-.933 1.448 1.429.92.933-1.447-1.429-.92zM15.29 24l.104.303 1.607-.555-.104-.303L15.29 24zm16.44-6.632l-.96-1.352-1.386.983.958 1.352 1.387-.983zm-15.663.186A7.425 7.425 0 0015.29 24l1.607-.555a5.726 5.726 0 01.599-4.97l-1.429-.921zm11.095-1.703c.883 0 1.711.428 2.222 1.148l1.387-.983a4.423 4.423 0 00-3.609-1.865v1.7zm-8.733 1.176a2.566 2.566 0 012.157-1.176v-1.7c-1.45 0-2.8.736-3.586 1.955l1.429.921zm-.557 7.965a2.768 2.768 0 01-.87-1.244l-1.608.555A4.468 4.468 0 0016.8 26.31l1.073-1.32zm3.906-9.65c0-.657-.534-1.191-1.192-1.191v1.7a.508.508 0 01-.508-.508h1.7zm-1.7 5.326c0 1.003.571 1.918 1.473 2.358l.745-1.528a.923.923 0 01-.518-.83h-1.7zm5.877 0a.923.923 0 01-.518.83l.745 1.528a2.623 2.623 0 001.473-2.358h-1.7zm-.518.83a3.582 3.582 0 01-3.141 0l-.745 1.528a5.282 5.282 0 004.631 0l-.745-1.528zm2.218-6.14c0 .272-.22.493-.493.493v-1.7c-.666 0-1.207.54-1.207 1.207h1.7zm5.056 8.928a7.66 7.66 0 00-.982-6.918l-1.387.983a5.96 5.96 0 01.763 5.38l1.606.555zm-1.471 2.022a4.276 4.276 0 001.471-2.022l-1.606-.555a2.577 2.577 0 01-.886 1.217l1.02 1.36zm-19.703-.207a.85.85 0 00-1.674.298l1.674-.298zm5.478 11.38a.85.85 0 00.87-1.461l-.87 1.46zM9.863 26.398c.448 2.523 1.059 4.612 2.167 6.42 1.115 1.82 2.695 3.296 4.985 4.661l.87-1.46c-2.112-1.26-3.467-2.555-4.406-4.089-.947-1.546-1.51-3.395-1.942-5.83l-1.674.298zm27-3.749a.85.85 0 001.674-.298l-1.674.298zm-5.478-11.38a.85.85 0 00-.87 1.461l.87-1.46zm7.152 11.082c-.448-2.523-1.059-4.612-2.166-6.42-1.116-1.82-2.696-3.296-4.986-4.661l-.87 1.46c2.112 1.26 3.466 2.555 4.406 4.089.947 1.546 1.51 3.395 1.942 5.83l1.674-.298z"/></g><defs><clipPath id="clip0_100_1380"><path fill="#fff" transform="translate(.2)" d="M0 0h48v48H0z"/></clipPath></defs></svg>