<svg width="203" height="48" fill="none" xmlns="http://www.w3.org/2000/svg"><g clip-path="url(#clip0_15_422)" fill="#fff"><path d="M2.897 5.423c-.517 0-.966-.18-1.348-.539-.381-.382-.572-.83-.572-1.347v-.101c0-.517.19-.966.572-1.348.382-.381.831-.572 1.348-.572h14.35c.516 0 .965.19 1.347.572.381.382.572.831.572 1.348v.1c0 .517-.19.966-.572 1.348a1.9 1.9 0 01-1.348.54h-4.513c-.18 0-.27.1-.27.302v18.46c0 .516-.19.965-.572 1.347-.382.381-.831.572-1.348.572H9.6a1.84 1.84 0 01-1.347-.572c-.382-.382-.573-.831-.573-1.348V5.726c0-.202-.09-.303-.27-.303H2.898zm26.996 12.261c-3.212 0-4.817.988-4.817 2.964 0 .719.202 1.303.606 1.752.427.45.966.674 1.617.674 1.28 0 2.313-.393 3.099-1.18.786-.808 1.179-1.908 1.179-3.3v-.607c0-.202-.101-.303-.303-.303h-1.381zm-3.807 8.758c-1.527 0-2.795-.494-3.806-1.482-.988-1.01-1.482-2.313-1.482-3.907 0-1.954.741-3.47 2.223-4.548 1.505-1.078 3.795-1.617 6.872-1.617h1.38c.203 0 .304-.1.304-.303v-.27c0-1.032-.247-1.75-.741-2.155-.494-.427-1.37-.64-2.628-.64-1.302 0-2.896.236-4.783.707a1.233 1.233 0 01-1.111-.202 1.276 1.276 0 01-.506-1.044c0-.516.158-.977.472-1.381.314-.427.719-.685 1.213-.775 1.706-.381 3.312-.572 4.817-.572 2.874 0 4.884.516 6.029 1.55 1.145 1.032 1.718 2.84 1.718 5.422v8.96c0 .517-.191.966-.573 1.348-.36.381-.797.572-1.314.572h-.37c-.539 0-1-.18-1.381-.539a2.007 2.007 0 01-.606-1.38v-.472c0-.023-.012-.034-.034-.034-.045 0-.067.011-.067.034-1.37 1.819-3.245 2.728-5.626 2.728zm14.671-.337c-.516 0-.965-.19-1.347-.572-.382-.382-.573-.831-.573-1.348V10.51c0-.517.191-.966.573-1.348.382-.382.83-.573 1.347-.573h.64c.517 0 .966.191 1.348.573.382.382.572.831.572 1.347v9.466l.034.033.034-.033 5.423-9.735c.629-1.1 1.583-1.65 2.863-1.65h.741c.517 0 .966.19 1.348.572.381.382.572.831.572 1.347v13.676c0 .517-.19.966-.572 1.348-.382.381-.831.572-1.348.572h-.64c-.516 0-.965-.19-1.347-.572-.382-.382-.573-.831-.573-1.348V14.72l-.033-.034-.034.034-5.423 9.735c-.63 1.1-1.584 1.65-2.864 1.65h-.74zM51.637.741h.068c.494 0 .898.168 1.212.505.315.337.393.73.236 1.18-.404 1.257-1.201 2.267-2.391 3.03-1.168.742-2.56 1.112-4.177 1.112-1.617 0-3.02-.37-4.21-1.111-1.169-.764-1.954-1.774-2.359-3.032-.157-.449-.078-.842.236-1.179.314-.337.719-.505 1.213-.505h.067c.741 0 1.46.505 2.156 1.516.629.92 1.594 1.38 2.897 1.38 1.302 0 2.268-.46 2.897-1.38.696-1.01 1.414-1.516 2.155-1.516zm11.846 10.981c-1.954 0-2.93 1.875-2.93 5.625s.976 5.626 2.93 5.626c.808 0 1.515-.37 2.122-1.112.112-.112.168-.292.168-.539v-7.95c0-.246-.056-.426-.168-.538-.607-.741-1.314-1.112-2.122-1.112zm6.67 1.65v7.95c0 .247.055.427.167.54.607.74 1.314 1.11 2.123 1.11 1.953 0 2.93-1.875 2.93-5.625s-.977-5.625-2.93-5.625c-.809 0-1.516.37-2.123 1.112-.112.134-.168.314-.168.539zm-7.68 13.07c-1.932 0-3.448-.763-4.548-2.29-1.1-1.527-1.65-3.796-1.65-6.805s.55-5.277 1.65-6.804c1.1-1.527 2.616-2.29 4.547-2.29 1.213 0 2.28.393 3.2 1.179.023.022.045.033.068.033.022 0 .033-.01.033-.033v-6.67c0-.516.191-.966.573-1.347.382-.382.83-.573 1.347-.573h.54c.516 0 .965.191 1.346.573.382.381.573.83.573 1.347v6.67c0 .022.011.033.034.033.022 0 .045-.01.067-.033a4.781 4.781 0 013.2-1.18c1.931 0 3.447.764 4.547 2.291 1.1 1.527 1.651 3.795 1.651 6.804 0 3.01-.55 5.278-1.65 6.805-1.1 1.527-2.617 2.29-4.548 2.29a4.781 4.781 0 01-3.2-1.179c-.022-.022-.045-.034-.067-.034-.023 0-.034.012-.034.034v6.333c0 .516-.19.965-.573 1.347-.381.382-.83.573-1.347.573h-.539c-.516 0-.965-.191-1.347-.573-.382-.382-.573-.83-.573-1.347v-6.333c0-.022-.011-.034-.033-.034-.023 0-.045.012-.068.034a4.781 4.781 0 01-3.2 1.18zm24.368-.606l-6.063-15.461c-.18-.427-.146-.831.101-1.213.27-.382.64-.573 1.112-.573h1.078c.561 0 1.066.169 1.515.506.45.337.764.774.944 1.313l3.503 11.049c0 .022.01.034.033.034s.034-.012.034-.034l3.503-11.049c.158-.539.46-.976.91-1.313a2.513 2.513 0 011.55-.506h.875c.449 0 .808.191 1.078.573.27.382.326.786.168 1.213l-5.928 15.831c-.988 2.628-2.122 4.503-3.402 5.626-1.258 1.122-2.998 1.774-5.221 1.953a1.645 1.645 0 01-1.246-.471 1.546 1.546 0 01-.506-1.18c0-.47.169-.886.505-1.246a1.957 1.957 0 011.247-.572c1.1-.135 1.953-.494 2.56-1.078.606-.561 1.156-1.516 1.65-2.863a1.095 1.095 0 000-.54zm13.666.27c-.517 0-.966-.192-1.347-.573a1.9 1.9 0 01-.54-1.348V10.51c0-.517.18-.966.54-1.348.381-.382.83-.573 1.347-.573h.741c.516 0 .965.191 1.347.573.382.382.573.831.573 1.347v4.514c0 .202.101.303.303.303h5.659c.202 0 .303-.1.303-.303V10.51c0-.516.191-.965.573-1.347.381-.382.83-.573 1.347-.573h.741c.517 0 .954.191 1.314.573.381.382.573.831.573 1.347v13.676c0 .517-.192.966-.573 1.348-.36.381-.797.572-1.314.572h-.741a1.84 1.84 0 01-1.347-.572c-.382-.382-.573-.831-.573-1.348v-5.39c0-.201-.101-.302-.303-.302h-5.659c-.202 0-.303.1-.303.303v5.39c0 .516-.191.965-.573 1.347-.382.381-.831.572-1.347.572h-.741zm18.417-7.984c-.495 0-.921-.168-1.28-.505a1.746 1.746 0 01-.539-1.28c0-.494.179-.91.539-1.246.359-.36.785-.54 1.28-.54h7.612c.494 0 .921.18 1.28.54.359.336.539.752.539 1.246s-.18.92-.539 1.28a1.807 1.807 0 01-1.28.505h-7.612zm13.521 7.545a2.407 2.407 0 01-1.314-.943c-.314-.471-.472-1-.472-1.583v-.337c0-.449.181-.797.539-1.044a1.297 1.297 0 011.213-.135c1.954.674 3.728 1.01 5.322 1.01 1.55 0 2.728-.336 3.537-1.01.831-.673 1.246-1.617 1.246-2.83 0-1.212-.493-2.099-1.482-2.66-.988-.584-2.706-.887-5.154-.91-.516 0-.954-.18-1.313-.539a1.903 1.903 0 01-.539-1.347c0-.517.18-.954.539-1.314.382-.382.831-.572 1.347-.572 4.155-.068 6.232-1.27 6.232-3.605 0-1.908-1.437-2.863-4.312-2.863-1.661 0-3.368.326-5.12.977-.426.157-.83.112-1.213-.135-.381-.247-.572-.595-.572-1.044V4.48c0-.584.168-1.112.505-1.583a2.407 2.407 0 011.314-.943c1.819-.517 3.739-.775 5.76-.775 2.583 0 4.593.528 6.029 1.583 1.46 1.056 2.19 2.47 2.19 4.244 0 1.595-.404 2.875-1.213 3.84-.786.966-2.055 1.696-3.806 2.19-.022 0-.034.011-.034.034 0 .044.012.067.034.067 1.774.27 3.121.91 4.042 1.92.943.988 1.415 2.313 1.415 3.975 0 2.335-.809 4.154-2.426 5.456-1.616 1.303-3.873 1.954-6.77 1.954a19.9 19.9 0 01-5.524-.775zm24.77-7.983c-3.212 0-4.817.988-4.817 2.964 0 .719.202 1.303.607 1.752.426.45.965.674 1.616.674 1.28 0 2.313-.393 3.099-1.18.786-.808 1.179-1.908 1.179-3.3v-.607c0-.202-.101-.303-.303-.303h-1.381zm-3.806 8.758c-1.528 0-2.796-.494-3.806-1.482-.989-1.01-1.483-2.313-1.483-3.907 0-1.954.741-3.47 2.224-4.548 1.504-1.078 3.794-1.617 6.871-1.617h1.381c.202 0 .303-.1.303-.303v-.27c0-1.032-.247-1.75-.741-2.155-.494-.427-1.37-.64-2.627-.64-1.303 0-2.897.236-4.783.707a1.234 1.234 0 01-1.112-.202 1.276 1.276 0 01-.505-1.044c0-.516.157-.977.472-1.381.314-.427.718-.685 1.212-.775 1.706-.381 3.312-.572 4.817-.572 2.874 0 4.884.516 6.029 1.55 1.146 1.032 1.718 2.84 1.718 5.422v8.96c0 .517-.191.966-.572 1.348a1.74 1.74 0 01-1.314.572h-.37c-.539 0-1-.18-1.382-.539a2.004 2.004 0 01-.606-1.38v-.472c0-.023-.012-.034-.034-.034-.045 0-.067.011-.067.034-1.37 1.819-3.245 2.728-5.625 2.728zm17.197-11.385v4.58c0 .9.382 1.696 1.146 2.392.785.697 1.695 1.045 2.728 1.045 1.19 0 2.133-.483 2.829-1.449.696-.965 1.045-2.391 1.045-4.278 0-3.817-1.292-5.726-3.874-5.726-1.033 0-1.943.348-2.728 1.044-.764.696-1.146 1.494-1.146 2.392zm-2.526 18.459c-.517 0-.966-.191-1.347-.573-.383-.382-.573-.83-.573-1.347V10.509c0-.516.19-.965.573-1.347.381-.382.83-.573 1.347-.573h.404c.539 0 .999.191 1.381.573.382.36.584.809.607 1.347v.236c0 .023.011.034.033.034.022 0 .045-.011.068-.034.808-.898 1.616-1.538 2.425-1.92.808-.381 1.751-.572 2.829-.572 2.111 0 3.795.797 5.053 2.391 1.257 1.572 1.886 3.806 1.886 6.703 0 2.807-.662 5.03-1.987 6.67-1.303 1.617-2.953 2.425-4.952 2.425-1.953 0-3.649-.707-5.086-2.122-.023-.023-.045-.034-.067-.034-.023 0-.034.011-.034.034v7.276c0 .516-.191.965-.573 1.347a1.735 1.735 0 01-1.313.573h-.674zm23.901-21.962c-2.739 0-4.109.797-4.109 2.391 0 1.64 1.426 2.46 4.278 2.46h1.314c.179 0 .269-.102.269-.304v-4.177c0-.202-.09-.303-.269-.303a24.878 24.878 0 00-1.483-.067zm-4.176 6.5c-1.236-.336-2.246-.897-3.032-1.683-.786-.809-1.179-1.763-1.179-2.864 0-3.435 2.729-5.153 8.185-5.153 1.392 0 2.897.056 4.514.168.539.023.988.247 1.347.674.382.404.573.876.573 1.415v13.574c0 .517-.191.966-.573 1.348-.381.381-.831.572-1.347.572h-.64a1.84 1.84 0 01-1.347-.572c-.382-.382-.573-.831-.573-1.348v-4.412c0-.18-.09-.27-.269-.27h-1.112c-.876 0-1.482.112-1.819.337-.337.202-.707.741-1.112 1.617l-1.246 2.897a3.204 3.204 0 01-1.111 1.28 2.738 2.738 0 01-1.55.471h-.606c-.449 0-.798-.19-1.044-.572a1.225 1.225 0 01-.068-1.18l1.449-3.132c.741-1.594 1.606-2.616 2.593-3.065.023 0 .034-.011.034-.034 0-.045-.023-.067-.067-.067zM.842 44.632a.76.76 0 01-.755-.768v-5.47a.76.76 0 01.755-.769h.297c.206 0 .386.077.538.23.153.152.23.332.23.538V40.2c0 .08.04.121.12.121h2.264c.081 0 .122-.04.122-.121v-1.806c0-.206.076-.386.229-.539a.737.737 0 01.539-.229h.296c.207 0 .382.077.526.23a.738.738 0 01.229.538v5.47a.737.737 0 01-.23.54.694.694 0 01-.525.229h-.296a.738.738 0 01-.54-.23.737.737 0 01-.228-.538v-2.156c0-.081-.04-.121-.122-.121H2.028c-.081 0-.121.04-.121.12v2.157a.737.737 0 01-.23.539.738.738 0 01-.538.229H.842zm9.873-3.369c-1.285 0-1.927.395-1.927 1.186 0 .287.081.52.243.7.17.18.386.27.646.27.513 0 .926-.157 1.24-.472.314-.323.472-.763.472-1.32v-.243c0-.08-.04-.12-.122-.12h-.552zm-1.523 3.503c-.61 0-1.118-.197-1.522-.593-.395-.404-.593-.925-.593-1.563 0-.78.296-1.387.89-1.818.601-.432 1.517-.647 2.748-.647h.552c.081 0 .122-.04.122-.121v-.108c0-.413-.1-.7-.297-.862-.197-.171-.548-.257-1.05-.257-.522 0-1.16.095-1.914.283a.493.493 0 01-.445-.08.51.51 0 01-.202-.418c0-.207.063-.39.189-.553a.754.754 0 01.485-.31 8.846 8.846 0 011.927-.229c1.15 0 1.953.207 2.411.62.459.413.688 1.137.688 2.17v3.584a.737.737 0 01-.23.539.695.695 0 01-.525.229h-.148a.777.777 0 01-.553-.216.803.803 0 01-.242-.552v-.189c0-.01-.005-.014-.014-.014-.018 0-.026.005-.026.014-.548.728-1.298 1.091-2.25 1.091zm7.19-.242l-2.426-6.185a.492.492 0 01.04-.485.515.515 0 01.445-.229h.431c.225 0 .427.068.607.202.18.135.305.31.377.526l1.401 4.42c0 .008.005.013.013.013.01 0 .014-.005.014-.014l1.401-4.42a1.005 1.005 0 01.984-.727h.35c.18 0 .324.077.431.23.108.152.13.314.068.484l-2.372 6.333c-.395 1.051-.849 1.801-1.36 2.25-.504.45-1.2.71-2.089.782a.658.658 0 01-.498-.189.618.618 0 01-.203-.472.71.71 0 01.202-.498.783.783 0 01.499-.23c.44-.053.782-.197 1.024-.43.242-.225.463-.607.66-1.146a.443.443 0 000-.215zm7.244-1.752c-.988 0-1.68-.175-2.075-.525-.395-.36-.593-.98-.593-1.86v-1.994a.76.76 0 01.755-.768h.202c.206 0 .386.077.539.23a.738.738 0 01.229.538v1.644c0 .566.08.934.242 1.105.17.17.508.256 1.01.256a3.23 3.23 0 001.321-.256c.063-.027.095-.085.095-.175v-2.574c0-.206.076-.386.229-.539a.737.737 0 01.539-.229h.229c.206 0 .381.077.525.23a.738.738 0 01.23.538v5.47a.737.737 0 01-.23.54.695.695 0 01-.525.229h-.23a.737.737 0 01-.538-.23.737.737 0 01-.23-.538v-1.32c0-.028-.013-.05-.04-.068-.018-.018-.04-.023-.067-.014a4.34 4.34 0 01-1.617.31zm5.416 1.86a.76.76 0 01-.755-.768v-5.47a.76.76 0 01.755-.769h.296a.74.74 0 01.54.23.738.738 0 01.229.538V40.2c0 .08.04.121.12.121h2.264c.081 0 .122-.04.122-.121v-1.806c0-.206.076-.386.229-.539a.737.737 0 01.539-.229h.296c.207 0 .382.077.526.23a.738.738 0 01.229.538v5.47a.737.737 0 01-.23.54.694.694 0 01-.525.229h-.296a.738.738 0 01-.54-.23.737.737 0 01-.228-.538v-2.156c0-.081-.04-.121-.122-.121h-2.263c-.081 0-.122.04-.122.12v2.157a.738.738 0 01-.229.539.738.738 0 01-.538.229h-.297zm10.695-5.269c-.26-.377-.656-.566-1.186-.566-.53 0-.93.19-1.199.566-.26.369-.39.957-.39 1.765 0 .809.13 1.402.39 1.779.27.368.67.552 1.2.552.53 0 .924-.184 1.185-.552.27-.377.404-.97.404-1.779 0-.808-.135-1.396-.404-1.765zm1.32 4.46c-.593.629-1.428.943-2.506.943-1.078 0-1.918-.314-2.52-.943-.592-.638-.889-1.536-.889-2.695 0-1.158.297-2.052.89-2.68.601-.639 1.441-.958 2.52-.958 1.077 0 1.912.32 2.505.957.602.629.903 1.523.903 2.681 0 1.16-.3 2.057-.903 2.695zm2.415-2.385a.723.723 0 01-.512-.202.7.7 0 01-.216-.512c0-.197.072-.364.216-.498a.7.7 0 01.512-.216h3.045a.7.7 0 01.512.216c.144.134.216.3.216.498a.7.7 0 01-.216.512.723.723 0 01-.512.202h-3.045zm5.8 3.194a.737.737 0 01-.54-.23.737.737 0 01-.229-.538v-5.47a.74.74 0 01.23-.54.737.737 0 01.538-.229h4.554a.74.74 0 01.54.23.738.738 0 01.228.538v5.47a.738.738 0 01-.229.54.738.738 0 01-.538.229h-.243a.737.737 0 01-.539-.23.737.737 0 01-.229-.538v-4.77c0-.08-.036-.121-.108-.121H50.39c-.072 0-.108.04-.108.12v4.77a.737.737 0 01-.23.54.738.738 0 01-.538.229h-.243zm8.284-4.42v1.833c0 .359.152.678.458.956.314.279.678.418 1.091.418.476 0 .853-.193 1.132-.58.278-.386.417-.956.417-1.71 0-1.528-.516-2.291-1.549-2.291-.413 0-.777.14-1.091.418-.306.278-.459.597-.459.956zm-1.011 7.384a.738.738 0 01-.539-.23.737.737 0 01-.229-.538v-8.435c0-.206.076-.386.23-.539a.737.737 0 01.538-.229h.162c.215 0 .4.077.552.23a.755.755 0 01.243.538v.095c0 .009.004.013.013.013.01 0 .018-.004.027-.013.323-.36.647-.616.97-.768.324-.153.7-.23 1.132-.23.844 0 1.518.32 2.021.957.503.629.755 1.523.755 2.681 0 1.123-.265 2.013-.795 2.668-.521.647-1.181.97-1.981.97-.782 0-1.46-.283-2.035-.849-.009-.009-.017-.013-.026-.013-.01 0-.014.004-.014.013v2.91a.737.737 0 01-.229.54.694.694 0 01-.526.229h-.269zm10.773-8.233c-.26-.377-.655-.566-1.185-.566s-.93.19-1.2.566c-.26.369-.39.957-.39 1.765 0 .809.13 1.402.39 1.779.27.368.67.552 1.2.552.53 0 .925-.184 1.185-.552.27-.377.405-.97.405-1.779 0-.808-.135-1.396-.405-1.765zm1.32 4.46c-.592.629-1.427.943-2.505.943-1.078 0-1.918-.314-2.52-.943-.593-.638-.89-1.536-.89-2.695 0-1.158.297-2.052.89-2.68.602-.639 1.442-.958 2.52-.958s1.913.32 2.506.957c.602.629.903 1.523.903 2.681 0 1.16-.301 2.057-.903 2.695zm2.389.809a.738.738 0 01-.54-.23.737.737 0 01-.228-.538v-5.47c0-.207.076-.387.229-.54a.737.737 0 01.539-.229h.256c.206 0 .386.077.539.23a.738.738 0 01.229.538v3.786l.013.014.014-.014 2.169-3.894c.251-.44.633-.66 1.145-.66h.297c.206 0 .386.077.539.23a.738.738 0 01.229.538v5.47a.737.737 0 01-.23.54.737.737 0 01-.538.229h-.256a.737.737 0 01-.54-.23.737.737 0 01-.228-.538v-3.786l-.014-.014-.013.014-2.17 3.893c-.251.44-.633.66-1.145.66h-.296zm6.853-.081a.828.828 0 01-.471-.31.92.92 0 01-.176-.553c0-.161.068-.291.203-.39a.493.493 0 01.444-.081 7 7 0 001.779.229c1.104 0 1.657-.31 1.657-.93 0-.305-.175-.534-.526-.687-.34-.153-.947-.233-1.819-.242a.57.57 0 01-.417-.176.616.616 0 01-.175-.43.57.57 0 01.175-.419.57.57 0 01.418-.175c1.5-.027 2.25-.31 2.25-.849 0-.511-.553-.767-1.658-.767-.467 0-.992.08-1.576.242a.517.517 0 01-.445-.067.44.44 0 01-.202-.391c0-.207.059-.386.175-.539a.774.774 0 01.472-.31 7.196 7.196 0 011.752-.216c1.014 0 1.81.176 2.384.526.584.341.876.759.876 1.253 0 .377-.144.714-.431 1.01-.279.297-.683.513-1.213.647-.018 0-.027.01-.027.027 0 .01.01.014.027.014.521.08.939.287 1.253.62.324.332.485.718.485 1.158 0 .611-.291 1.1-.875 1.469-.575.368-1.402.552-2.48.552a8.087 8.087 0 01-1.859-.215zm7.77-2.938v1.793c0 .071.041.116.122.134.108.018.278.027.512.027 1.068 0 1.603-.36 1.603-1.078 0-.655-.548-.983-1.644-.983h-.471c-.081 0-.122.036-.122.108zm0-2.762v1.442c0 .072.041.108.122.108h.431c.44 0 .786-.081 1.037-.243.26-.161.391-.381.391-.66 0-.539-.463-.808-1.388-.808-.107 0-.27.009-.485.027-.072.018-.108.063-.108.134zm-1.024 5.807a.783.783 0 01-.539-.269.876.876 0 01-.215-.58v-5.362c0-.224.072-.418.215-.58a.795.795 0 01.553-.269 16.93 16.93 0 011.455-.067c2.137 0 3.207.584 3.207 1.752 0 .404-.148.75-.445 1.037-.288.279-.683.463-1.185.552l-.014.014h.014c.6.08 1.072.278 1.414.593.341.305.512.682.512 1.132 0 1.41-1.132 2.115-3.395 2.115-.485 0-1.01-.023-1.577-.068zm9.88-5.295c-.26-.377-.657-.566-1.186-.566-.53 0-.93.19-1.2.566-.26.369-.39.957-.39 1.765 0 .809.13 1.402.39 1.779.27.368.67.552 1.2.552.53 0 .925-.184 1.185-.552.27-.377.404-.97.404-1.779 0-.808-.134-1.396-.404-1.765zm1.32 4.46c-.593.629-1.428.943-2.506.943-1.078 0-1.918-.314-2.52-.943-.593-.638-.89-1.536-.89-2.695 0-1.158.297-2.052.89-2.68.602-.639 1.442-.958 2.52-.958s1.913.32 2.506.957c.602.629.902 1.523.902 2.681 0 1.16-.3 2.057-.902 2.695zm3.749-.593c-.019.018-.023.04-.014.068.018.018.04.027.068.027h2.479c.081 0 .121-.036.121-.108V39.04c0-.072-.04-.108-.121-.108h-1.725c-.072 0-.108.036-.108.108 0 1.096-.013 1.855-.04 2.277-.027.413-.086.75-.175 1.01-.081.252-.243.553-.485.903zm-1.846 3.018a.76.76 0 01-.755-.768v-1.643a.52.52 0 01.135-.364.494.494 0 01.364-.148c.054 0 .094-.018.121-.054.332-.413.557-.75.674-1.01.116-.261.193-.607.229-1.038.044-.44.067-1.204.067-2.29v-.54c0-.206.076-.386.23-.539a.736.736 0 01.538-.229h3.854a.74.74 0 01.539.23.74.74 0 01.229.538v4.824c0 .072.04.108.121.108h.04c.207 0 .382.076.526.229a.74.74 0 01.229.539v1.387a.74.74 0 01-.229.54.696.696 0 01-.526.228h-.202a.738.738 0 01-.539-.229.736.736 0 01-.229-.539v-.727c0-.081-.04-.121-.121-.121H98.82c-.08 0-.121.04-.121.12v.728a.739.739 0 01-.23.54.74.74 0 01-.538.228h-.202zm10.863-1.482c-1.113 0-1.971-.305-2.573-.916-.602-.62-.903-1.527-.903-2.722 0-1.176.288-2.075.862-2.694.585-.63 1.411-.944 2.479-.944.477 0 .935.032 1.375.095a.776.776 0 01.512.283.86.86 0 01.202.566c0 .18-.072.323-.216.43a.546.546 0 01-.471.109 5.87 5.87 0 00-1.173-.108c-.566 0-.987.18-1.266.539-.278.36-.418.934-.418 1.724 0 .809.148 1.388.445 1.739.296.35.754.525 1.374.525.44 0 .822-.04 1.145-.121a.494.494 0 01.458.094.5.5 0 01.216.418.856.856 0 01-.202.566.777.777 0 01-.499.296c-.458.08-.907.121-1.347.121zM112.039 39a.66.66 0 01-.485-.203.66.66 0 01-.202-.485.66.66 0 01.202-.485.66.66 0 01.485-.202h4.877a.66.66 0 01.485.202.66.66 0 01.202.485.66.66 0 01-.202.486.66.66 0 01-.485.202h-1.388c-.08 0-.121.035-.121.107v4.757a.736.736 0 01-.229.539.736.736 0 01-.539.229h-.323a.737.737 0 01-.539-.23.736.736 0 01-.229-.538v-4.757c0-.072-.041-.107-.121-.107h-1.388zm8.124 2.614v1.792c0 .071.041.116.122.134.107.018.278.027.512.027 1.068 0 1.603-.36 1.603-1.078 0-.655-.548-.983-1.644-.983h-.471c-.081 0-.122.036-.122.108zm0-2.763v1.442c0 .072.041.108.122.108h.431c.44 0 .785-.081 1.037-.243.26-.161.391-.381.391-.66 0-.539-.462-.808-1.388-.808a6.43 6.43 0 00-.485.027c-.071.018-.108.063-.108.134zm-1.024 5.807a.785.785 0 01-.539-.269.873.873 0 01-.215-.58v-5.362a.84.84 0 01.215-.58.797.797 0 01.553-.269 17.013 17.013 0 011.455-.067c2.138 0 3.207.584 3.207 1.752 0 .404-.148.75-.445 1.037-.287.279-.683.463-1.186.552l-.013.014h.013c.603.08 1.074.278 1.415.593.341.305.512.682.512 1.132 0 1.41-1.132 2.115-3.395 2.115-.485 0-1.011-.023-1.577-.068zm8.613-5.914c-.459 0-.813.13-1.065.39-.242.252-.395.66-.458 1.226 0 .072.036.108.108.108h2.641c.072 0 .107-.036.107-.108-.035-1.078-.48-1.616-1.333-1.616zm.336 6.022c-1.176 0-2.083-.305-2.721-.916-.628-.62-.943-1.527-.943-2.722 0-1.185.283-2.088.848-2.708.566-.62 1.384-.93 2.453-.93 1.994 0 3.018 1.132 3.072 3.396a.654.654 0 01-.229.539.827.827 0 01-.566.215h-3.679c-.08 0-.112.04-.094.122.063.602.261 1.042.593 1.32.342.27.835.404 1.482.404.404 0 .854-.067 1.347-.202a.494.494 0 01.445.081.465.465 0 01.216.404.876.876 0 01-.189.553.736.736 0 01-.472.283 7.432 7.432 0 01-1.563.161zm4.244-.134a.76.76 0 01-.755-.768v-5.47a.76.76 0 01.755-.769h.296c.207 0 .386.077.539.23a.736.736 0 01.229.538V40.2c0 .08.041.121.121.121h2.264c.081 0 .121-.04.121-.121v-1.806c0-.206.076-.386.229-.539a.737.737 0 01.539-.229h.297c.206 0 .381.077.525.23a.736.736 0 01.229.538v5.47a.736.736 0 01-.229.54.695.695 0 01-.525.229h-.297a.737.737 0 01-.539-.23.736.736 0 01-.229-.538v-2.156c0-.081-.04-.121-.121-.121h-2.264c-.08 0-.121.04-.121.12v2.157a.736.736 0 01-.229.539.737.737 0 01-.539.229h-.296zm7.326 0a.759.759 0 01-.754-.768v-5.47a.759.759 0 01.754-.769h.297c.206 0 .385.077.538.23.153.152.23.332.23.538V40.2c0 .08.04.121.121.121h2.263c.081 0 .122-.04.122-.121v-1.806c0-.206.075-.386.229-.539a.734.734 0 01.539-.229h.296c.206 0 .382.077.526.23a.74.74 0 01.229.538v5.47a.74.74 0 01-.229.54.697.697 0 01-.526.229h-.296a.734.734 0 01-.539-.23.732.732 0 01-.229-.538v-2.156c0-.081-.041-.121-.122-.121h-2.263c-.081 0-.121.04-.121.12v2.157a.737.737 0 01-.23.539.737.737 0 01-.538.229h-.297zm9.873-3.369c-1.285 0-1.927.395-1.927 1.186 0 .287.081.52.243.7.17.18.385.27.646.27.512 0 .925-.157 1.24-.472.314-.323.472-.763.472-1.32v-.243c0-.08-.041-.12-.122-.12h-.552zm-1.523 3.503c-.611 0-1.118-.197-1.522-.593-.396-.404-.593-.925-.593-1.563 0-.78.296-1.387.889-1.818.602-.432 1.518-.647 2.749-.647h.552c.081 0 .122-.04.122-.121v-.108c0-.413-.1-.7-.297-.862-.198-.171-.548-.257-1.051-.257-.521 0-1.158.095-1.913.283a.494.494 0 01-.445-.08.513.513 0 01-.202-.418c0-.207.063-.39.189-.553a.75.75 0 01.485-.31 8.842 8.842 0 011.927-.229c1.149 0 1.953.207 2.411.62.459.413.688 1.137.688 2.17v3.584a.74.74 0 01-.229.539.697.697 0 01-.526.229h-.148a.778.778 0 01-.795-.768v-.189c0-.01-.005-.014-.014-.014-.018 0-.026.005-.026.014-.549.728-1.299 1.091-2.251 1.091zm8.011-5.955c-1.096 0-1.644.319-1.644.957 0 .655.571.983 1.711.983h.525c.073 0 .108-.04.108-.121v-1.67c0-.082-.035-.122-.108-.122a9.94 9.94 0 00-.592-.027zm-1.671 2.6c-.494-.134-.898-.359-1.213-.673a1.59 1.59 0 01-.471-1.146c0-1.374 1.091-2.061 3.274-2.061.557 0 1.158.022 1.805.067a.716.716 0 01.539.27c.153.161.229.35.229.566v5.43a.736.736 0 01-.229.539.736.736 0 01-.539.229h-.256a.74.74 0 01-.539-.23.74.74 0 01-.229-.538v-1.765c0-.072-.035-.108-.108-.108h-.444c-.351 0-.593.045-.728.135-.135.08-.283.296-.444.646l-.499 1.159a1.282 1.282 0 01-.445.512 1.092 1.092 0 01-.619.189h-.243a.473.473 0 01-.418-.23.494.494 0 01-.027-.471l.58-1.253c.296-.638.642-1.047 1.037-1.226.01 0 .014-.005.014-.014 0-.018-.009-.027-.027-.027zm10.958-2.533c-.781 0-1.172.75-1.172 2.25s.391 2.25 1.172 2.25c.323 0 .606-.148.849-.444.045-.045.067-.117.067-.216v-3.18c0-.098-.022-.17-.067-.215-.243-.297-.526-.445-.849-.445zm2.668.66v3.18c0 .1.023.171.067.216.243.296.526.445.849.445.782 0 1.172-.75 1.172-2.25s-.39-2.25-1.172-2.25c-.323 0-.606.148-.849.444a.33.33 0 00-.067.215zm-3.072 5.228c-.772 0-1.379-.305-1.819-.916-.44-.61-.66-1.518-.66-2.722 0-1.203.22-2.11.66-2.721.44-.611 1.047-.916 1.819-.916.485 0 .912.157 1.28.471.009.01.018.014.027.014.009 0 .013-.005.013-.014v-2.668a.74.74 0 01.229-.539.74.74 0 01.539-.229h.216a.74.74 0 01.539.23.74.74 0 01.229.538v2.668c0 .01.004.014.013.014.01 0 .018-.005.027-.014a1.912 1.912 0 011.28-.472c.773 0 1.379.306 1.819.917.441.61.66 1.518.66 2.721 0 1.204-.219 2.111-.66 2.722-.44.61-1.046.916-1.819.916-.485 0-.912-.157-1.28-.471-.009-.01-.017-.014-.027-.014-.009 0-.013.005-.013.014v2.533a.74.74 0 01-.229.539.74.74 0 01-.539.229h-.216a.74.74 0 01-.539-.23.74.74 0 01-.229-.538v-2.533c0-.01-.004-.014-.013-.014s-.018.005-.027.014a1.912 1.912 0 01-1.28.471zm8.428-.134a.736.736 0 01-.539-.23.732.732 0 01-.229-.538v-5.47c0-.207.075-.387.229-.54a.736.736 0 01.539-.229h.256a.74.74 0 01.539.23.74.74 0 01.229.538v3.786l.013.014.014-.014 2.169-3.894c.251-.44.633-.66 1.145-.66h.297a.74.74 0 01.539.23.74.74 0 01.229.538v5.47a.74.74 0 01-.229.54.74.74 0 01-.539.229h-.256a.734.734 0 01-.539-.23.732.732 0 01-.229-.538v-3.786l-.014-.014-.013.014-2.17 3.893c-.251.44-.633.66-1.145.66h-.296zm8.389-4.42v1.833c0 .359.152.678.458.956.314.279.678.418 1.091.418.476 0 .853-.193 1.132-.58.279-.386.418-.956.418-1.71 0-1.528-.517-2.291-1.55-2.291-.413 0-.777.14-1.091.418-.306.278-.458.597-.458.956zm-1.011 7.384a.74.74 0 01-.539-.23.74.74 0 01-.229-.538v-8.435a.74.74 0 01.229-.539.739.739 0 01.539-.229h.162c.215 0 .4.077.552.23a.755.755 0 01.243.538v.095c0 .009.004.013.013.013.01 0 .018-.004.027-.013.324-.36.647-.616.97-.768.324-.153.701-.23 1.132-.23.845 0 1.518.32 2.021.957.503.629.755 1.523.755 2.681 0 1.123-.266 2.013-.795 2.668-.521.647-1.182.97-1.981.97-.781 0-1.459-.283-2.034-.849-.01-.009-.018-.013-.027-.013-.01 0-.014.004-.014.013v2.91a.736.736 0 01-.229.54.695.695 0 01-.525.229h-.27zm7.405-2.964a.764.764 0 01-.755-.768v-5.47c0-.207.073-.387.216-.54a.739.739 0 01.539-.229h.377c.512 0 .881.23 1.105.687l1.617 3.288c0 .009.005.014.013.014l.014-.014 1.617-3.288c.224-.458.592-.687 1.104-.687h.405c.207 0 .382.077.525.23a.736.736 0 01.229.538v5.47a.736.736 0 01-.229.54.692.692 0 01-.525.229h-.243a.74.74 0 01-.539-.23.74.74 0 01-.229-.538V40.01h-.027l-1.091 2.237c-.207.413-.543.62-1.011.62-.466 0-.803-.207-1.01-.62l-1.105-2.237h-.027v3.854a.736.736 0 01-.229.539.692.692 0 01-.526.229h-.215zm11.491-3.369c-1.284 0-1.927.395-1.927 1.186 0 .287.081.52.243.7.171.18.387.27.647.27.512 0 .925-.157 1.239-.472.315-.323.472-.763.472-1.32v-.243c0-.08-.041-.12-.121-.12h-.553zm-1.522 3.503c-.611 0-1.119-.197-1.523-.593-.395-.404-.593-.925-.593-1.563 0-.78.297-1.387.89-1.818.602-.432 1.518-.647 2.748-.647h.553c.08 0 .121-.04.121-.121v-.108c0-.413-.099-.7-.297-.862-.197-.171-.547-.257-1.05-.257-.521 0-1.159.095-1.914.283a.492.492 0 01-.444-.08.51.51 0 01-.202-.418.88.88 0 01.188-.553.756.756 0 01.485-.31 8.857 8.857 0 011.927-.229c1.15 0 1.954.207 2.412.62.458.413.687 1.137.687 2.17v3.584a.736.736 0 01-.229.539.692.692 0 01-.526.229h-.148a.777.777 0 01-.552-.216.802.802 0 01-.243-.552v-.189c0-.01-.004-.014-.013-.014-.018 0-.027.005-.027.014-.548.728-1.298 1.091-2.25 1.091z"/></g><defs><clipPath id="clip0_15_422"><path fill="#fff" d="M0 0h202.105v48H0z"/></clipPath></defs></svg>