<svg width="133" height="23" fill="none" xmlns="http://www.w3.org/2000/svg"><path d="M1.931 3.121a1.268 1.268 0 01-1.28-1.257v-.068c0-.344.128-.643.382-.898a1.23 1.23 0 01.898-.382h9.567c.344 0 .643.128.898.382.254.255.382.554.382.898v.068a1.268 1.268 0 01-1.28 1.258h-3.01c-.12 0-.18.067-.18.202V15.63c0 .344-.126.643-.38.898a1.23 1.23 0 01-.9.382H6.4a1.23 1.23 0 01-.898-.382 1.23 1.23 0 01-.382-.898V3.324c0-.135-.06-.203-.18-.203H1.931zm17.998 8.174c-2.141 0-3.212.66-3.212 1.977 0 .479.135.868.405 1.167.284.3.643.45 1.077.45.854 0 1.542-.263 2.066-.787.524-.539.786-1.272.786-2.2v-.404c0-.135-.067-.203-.202-.203h-.92zm-2.538 5.839c-1.018 0-1.864-.33-2.537-.988-.66-.674-.989-1.542-.989-2.605 0-1.302.494-2.313 1.482-3.032 1.004-.718 2.53-1.077 4.582-1.077h.92c.135 0 .202-.068.202-.203v-.18c0-.688-.164-1.167-.494-1.436-.329-.285-.913-.427-1.751-.427-.869 0-1.931.157-3.189.472a.822.822 0 01-.741-.135.851.851 0 01-.337-.696c0-.345.105-.652.315-.921.209-.284.479-.457.808-.517 1.138-.254 2.208-.381 3.211-.381 1.916 0 3.256.344 4.02 1.033.763.688 1.145 1.893 1.145 3.615v5.973c0 .345-.127.644-.382.899-.24.254-.531.382-.875.382h-.247c-.36 0-.667-.12-.921-.36a1.338 1.338 0 01-.404-.92v-.315c0-.015-.008-.022-.023-.022-.03 0-.045.007-.045.022-.913 1.213-2.163 1.819-3.75 1.819zm9.78-.224a1.23 1.23 0 01-.898-.382 1.229 1.229 0 01-.381-.898V6.511c0-.344.127-.643.381-.898a1.23 1.23 0 01.899-.382h.426c.345 0 .644.128.899.382.254.255.381.554.381.898v6.31l.023.023.022-.023 3.616-6.49c.419-.733 1.055-1.1 1.908-1.1h.495c.344 0 .643.128.898.382.254.255.382.554.382.898v9.117c0 .345-.128.644-.382.899a1.23 1.23 0 01-.898.382h-.427a1.23 1.23 0 01-.898-.382 1.229 1.229 0 01-.382-.898V9.32l-.023-.023-.022.022-3.615 6.49c-.42.734-1.056 1.1-1.91 1.1h-.493zM34.426 0h.045c.33 0 .599.112.808.337.21.224.262.486.158.786-.27.838-.801 1.512-1.595 2.02-.778.495-1.706.742-2.784.742-1.078 0-2.014-.247-2.807-.741-.779-.51-1.303-1.183-1.572-2.021-.105-.3-.053-.562.157-.786.21-.225.479-.337.808-.337h.045c.494 0 .973.337 1.437 1.01.42.614 1.063.921 1.932.921.868 0 1.512-.307 1.93-.92C33.453.337 33.932 0 34.426 0zm7.897 7.32c-1.303 0-1.954 1.25-1.954 3.75 0 2.501.651 3.751 1.954 3.751.539 0 1.01-.247 1.415-.741.075-.075.112-.195.112-.36V8.422c0-.165-.037-.284-.112-.36-.405-.493-.876-.74-1.415-.74zm4.446 1.101v5.3c0 .164.038.284.112.359.405.494.876.741 1.415.741 1.303 0 1.954-1.25 1.954-3.75s-.651-3.75-1.954-3.75c-.539 0-1.01.247-1.415.74a.543.543 0 00-.112.36zm-5.12 8.713c-1.287 0-2.298-.509-3.031-1.527-.734-1.018-1.1-2.53-1.1-4.536s.366-3.518 1.1-4.536c.733-1.018 1.744-1.527 3.031-1.527.809 0 1.52.262 2.133.786.016.015.03.022.045.022s.023-.007.023-.022V1.347c0-.344.127-.643.382-.898a1.23 1.23 0 01.898-.382h.36c.344 0 .643.128.897.382.255.255.382.554.382.898v4.447c0 .015.008.022.023.022s.03-.007.045-.022a3.187 3.187 0 012.133-.786c1.287 0 2.298.509 3.032 1.527.733 1.018 1.1 2.53 1.1 4.536s-.367 3.518-1.1 4.536c-.734 1.018-1.745 1.527-3.032 1.527-.809 0-1.52-.262-2.133-.786-.015-.015-.03-.022-.045-.022s-.023.007-.023.022v4.222c0 .344-.127.644-.382.898a1.229 1.229 0 01-.898.382h-.36a1.23 1.23 0 01-.897-.382 1.23 1.23 0 01-.382-.898v-4.222c0-.015-.008-.022-.023-.022a.062.062 0 00-.044.022 3.188 3.188 0 01-2.134.786zm16.246-.404L53.852 6.422a.82.82 0 01.068-.808.859.859 0 01.74-.382h.72c.373 0 .71.113 1.01.337.299.225.509.517.629.876l2.335 7.365c0 .015.007.023.022.023.016 0 .023-.008.023-.023l2.335-7.365a1.64 1.64 0 01.607-.876 1.679 1.679 0 011.033-.337h.584a.84.84 0 01.718.382.83.83 0 01.112.808l-3.952 10.555c-.658 1.751-1.415 3.002-2.268 3.75-.838.748-1.999 1.183-3.48 1.302a1.097 1.097 0 01-.831-.314 1.03 1.03 0 01-.337-.786c0-.314.112-.591.337-.83.224-.225.501-.353.83-.383.734-.09 1.303-.329 1.707-.718.404-.374.77-1.01 1.1-1.909a.727.727 0 000-.36zm9.11.18c-.344 0-.643-.128-.898-.382a1.267 1.267 0 01-.359-.898V6.511c0-.344.12-.643.36-.898.254-.254.553-.382.898-.382h.494c.344 0 .643.128.898.382.254.255.382.554.382.898v3.01c0 .134.067.202.202.202h3.773c.134 0 .202-.068.202-.203V6.512c0-.344.126-.643.381-.898.255-.254.554-.382.899-.382h.494c.344 0 .636.128.876.382.254.255.381.554.381.898v9.117c0 .345-.127.644-.381.899a1.16 1.16 0 01-.876.382h-.494c-.345 0-.644-.128-.899-.382a1.228 1.228 0 01-.381-.898v-3.594c0-.134-.068-.202-.203-.202h-3.772c-.135 0-.202.068-.202.203v3.592c0 .345-.128.644-.382.899a1.23 1.23 0 01-.898.382h-.494zm12.279-5.323c-.33 0-.615-.112-.854-.336a1.165 1.165 0 01-.359-.854c0-.33.12-.606.36-.83.238-.24.523-.36.853-.36h5.075c.329 0 .613.12.853.36.24.224.36.5.36.83 0 .33-.12.614-.36.854-.24.224-.524.336-.853.336h-5.075zm9.014 5.03a1.603 1.603 0 01-.876-.628 1.862 1.862 0 01-.315-1.056v-.224c0-.3.12-.532.36-.696a.865.865 0 01.808-.09c1.303.449 2.485.674 3.548.674 1.033 0 1.82-.225 2.358-.674.554-.45.83-1.078.83-1.886 0-.809-.328-1.4-.987-1.775-.659-.389-1.804-.59-3.436-.606-.344 0-.636-.12-.876-.36a1.27 1.27 0 01-.359-.897c0-.345.12-.637.36-.876a1.23 1.23 0 01.897-.382c2.77-.045 4.155-.846 4.155-2.403 0-1.272-.958-1.909-2.874-1.909-1.108 0-2.246.218-3.414.652a.864.864 0 01-.808-.09.784.784 0 01-.382-.696v-.202c0-.39.112-.741.337-1.056.224-.314.516-.524.876-.629a13.994 13.994 0 013.84-.516c1.722 0 3.062.352 4.02 1.055.973.704 1.459 1.647 1.459 2.83 0 1.063-.27 1.916-.808 2.56-.524.644-1.37 1.13-2.538 1.46-.015 0-.022.007-.022.022 0 .03.007.045.022.045 1.183.18 2.081.606 2.695 1.28.629.659.943 1.542.943 2.65 0 1.557-.54 2.77-1.617 3.638-1.078.868-2.582 1.302-4.514 1.302-1.257 0-2.484-.172-3.682-.517zm16.513-5.322c-2.141 0-3.211.66-3.211 1.977 0 .479.135.868.404 1.167.284.3.644.45 1.078.45.853 0 1.542-.263 2.066-.787.524-.539.786-1.272.786-2.2v-.404c0-.135-.067-.203-.202-.203h-.921zm-2.537 5.839c-1.019 0-1.864-.33-2.538-.988-.659-.674-.988-1.542-.988-2.605 0-1.302.494-2.313 1.482-3.032 1.003-.718 2.53-1.077 4.581-1.077h.921c.135 0 .202-.068.202-.203v-.18c0-.688-.165-1.167-.494-1.436-.33-.285-.913-.427-1.752-.427-.868 0-1.931.157-3.188.472a.822.822 0 01-.741-.135.85.85 0 01-.337-.696c0-.345.104-.652.314-.921a1.26 1.26 0 01.809-.517c1.137-.254 2.208-.381 3.211-.381 1.916 0 3.256.344 4.019 1.033.764.688 1.146 1.893 1.146 3.615v5.973c0 .345-.128.644-.382.899a1.16 1.16 0 01-.876.382h-.247c-.359 0-.666-.12-.921-.36a1.34 1.34 0 01-.404-.92v-.315c0-.015-.008-.022-.022-.022-.031 0-.045.007-.045.022-.914 1.213-2.164 1.819-3.75 1.819zm11.465-7.59v3.054c0 .599.254 1.13.763 1.594a2.66 2.66 0 001.819.696c.793 0 1.422-.321 1.886-.965.464-.644.697-1.595.697-2.852 0-2.545-.862-3.818-2.583-3.818a2.66 2.66 0 00-1.819.696c-.509.465-.763.996-.763 1.595zm-1.685 12.306a1.23 1.23 0 01-.898-.382 1.228 1.228 0 01-.382-.898V6.512c0-.344.127-.643.382-.898a1.23 1.23 0 01.898-.382h.27c.359 0 .666.128.921.382.254.24.389.539.404.898v.157c0 .015.007.023.022.023s.03-.008.045-.023c.539-.598 1.078-1.025 1.617-1.28.539-.254 1.168-.381 1.886-.381 1.407 0 2.53.531 3.369 1.594.838 1.048 1.257 2.538 1.257 4.469 0 1.871-.441 3.353-1.325 4.446-.868 1.078-1.968 1.617-3.301 1.617-1.302 0-2.433-.471-3.39-1.415-.016-.015-.031-.022-.045-.022-.016 0-.023.007-.023.022v4.85c0 .345-.127.645-.382.9a1.155 1.155 0 01-.875.38h-.45zm15.935-14.642c-1.826 0-2.74.532-2.74 1.595 0 1.093.951 1.64 2.852 1.64h.876c.119 0 .18-.068.18-.203V7.455c0-.134-.061-.202-.18-.202-.449-.03-.779-.045-.988-.045zm-2.785 4.335c-.823-.225-1.497-.6-2.021-1.123-.524-.54-.786-1.176-.786-1.91 0-2.29 1.819-3.435 5.457-3.435.928 0 1.931.038 3.009.112.359.015.659.165.898.45.255.269.382.583.382.943v9.05c0 .344-.127.643-.382.898a1.228 1.228 0 01-.898.382h-.426a1.23 1.23 0 01-.899-.382 1.23 1.23 0 01-.381-.898v-2.942c0-.12-.061-.18-.18-.18h-.741c-.584 0-.988.075-1.213.225-.224.134-.471.494-.741 1.077l-.831 1.932a2.127 2.127 0 01-.741.853c-.314.21-.658.315-1.033.315h-.404a.783.783 0 01-.696-.382.815.815 0 01-.045-.786l.966-2.089c.494-1.063 1.07-1.744 1.729-2.043.015 0 .022-.008.022-.023 0-.03-.015-.044-.045-.044z" fill="#fff"/></svg>