<svg width="80" height="70" fill="none" xmlns="http://www.w3.org/2000/svg"><path d="M17.43 59.824h3.534c-.038.356-.115 1.055-.369 1.55-.8 1.716-2.643 2.67-6.138 2.67-2.796 0-4.614-.7-5.593-1.882-.673-.788-1.016-1.88-1.016-3.279 0-1.27.317-2.325.953-3.1 1.017-1.272 2.847-2.034 5.72-2.034 3.913 0 5.54 1.398 6.138 2.885.203.52.267 1.106.28 1.423h-3.534a1.512 1.512 0 00-.254-.737c-.369-.534-1.182-.928-2.669-.928-1.347 0-2.326.343-2.77 1.042-.23.344-.318.852-.318 1.488 0 .686.114 1.156.355 1.5.496.736 1.602 1.016 2.746 1.016 1.334 0 2.287-.267 2.707-.877a1.36 1.36 0 00.228-.737zm14.447 1.411v2.656h-9.52v-9.977h3.445v7.32h6.075zm11.864 2.655v-2.477h-7.155v-1.297h6.863V57.69h-6.863v-1.284h7.066v-2.49H33.23v9.976h10.511z" fill="#3A7995"/><path fill-rule="evenodd" clip-rule="evenodd" d="M54.214 62.048h-5.389l-.928 1.843h-3.596l5.325-9.977h4.105l5.033 9.977h-3.673l-.877-1.843zm-4.27-2.237h3.19l-1.195-2.415-.356-.902-.381.915-1.258 2.402zm21.592-2.859c0-.903-.216-1.551-.674-2.021-.597-.636-1.627-1.017-3.202-1.017h-7.944v9.977h3.394v-3.52h3.088l2.478 3.52h3.788l-3.012-4.067c.673-.102 1.22-.508 1.575-.991.318-.445.509-1.106.509-1.881zm-3.305.317c0 .166-.025.369-.114.521-.127.255-.457.356-1.004.356h-3.991V56.33h3.927c.534 0 .89.089 1.068.42.089.126.114.33.114.52z" fill="#3A7995"/><path d="M52.796 8.476c0 .165-.025.369-.114.521-.127.254-.458.356-1.004.356h-3.991V7.536h3.927c.534 0 .89.088 1.068.419.089.127.114.33.114.52zm9.936 2.542h3.19l-1.195-2.415-.356-.902-.381.915-1.258 2.402z" fill="#3A7995"/><path fill-rule="evenodd" clip-rule="evenodd" d="M2.042 8.452a8.036 8.036 0 017.993-7.213h59.93A8.035 8.035 0 0178 9.274V59.56a8.035 8.035 0 01-8.035 8.035h-59.93A8.035 8.035 0 012 59.56V9.274c0-.277.014-.551.042-.822zm1.632 15.261l27.007 9.134c.736-.746 1.737-1.395 2.941-1.9.277-.117.563-.225.856-.324l-11.26-11.425h8.814l4.948 10.818a17.219 17.219 0 012.686-.207v-10.61h7.632L42.35 30.015c.763.12 1.503.29 2.205.51.904.284 1.728.642 2.446 1.063l21.151-12.39h8.174v4.288L45.365 33.958c-.651-.66-1.622-1.193-2.79-1.53a10.79 10.79 0 00-3.769-.365c-1.29.1-2.502.421-3.48.924-.979.503-1.681 1.164-2.018 1.9-.337.737-.293 1.516.125 2.238s1.193 1.355 2.226 1.82c1.032.464 2.277.738 3.576.788.721.028 1.442-.015 2.133-.123a9.623 9.623 0 001.588-.386l10.261 10.411h-7.262l-3.605-7.88a17.51 17.51 0 01-5.37 0l-3.604 7.88h-7.262l8.364-8.486a11.634 11.634 0 01-2.148-.966l-16.136 9.452H3.674v-1.577l27.007-9.134c-.622-.63-1.047-1.324-1.252-2.048-.24-.857-.165-1.73.216-2.563L3.674 30.236v-6.523zm72.652 24.572l-36.66-12.4 36.66 5.755v6.645zm0 3.024H3.674v8.25a6.361 6.361 0 006.361 6.362h59.93a6.361 6.361 0 006.361-6.361v-8.25zM21.503 11.247V5.12h-3.406v5.82c0 1.043-.966 1.742-2.593 1.742-1.703 0-2.63-.674-2.63-1.754V5.12H9.428v5.808c0 3.025 2.479 4.308 5.935 4.308 3.699 0 6.139-1.296 6.139-3.99zm11.47 3.85v-2.656H26.9v-7.32h-3.444v9.976h9.519zM43.21 5.121v2.503h-4.22v7.474h-3.482V7.623H31.3V5.121h11.91zM56.1 8.158c0-.902-.216-1.55-.673-2.02-.597-.636-1.627-1.017-3.203-1.017h-7.943v9.976h3.393v-3.52h3.089l2.478 3.52h3.787l-3.012-4.066c.674-.102 1.22-.509 1.576-.992.318-.445.508-1.105.508-1.88zm10.902 5.097h-5.389l-.927 1.842h-3.597l5.325-9.976h4.105l5.033 9.976h-3.673l-.877-1.842z" fill="#3A7995"/></svg>